<svg aria-hidden="true" xmlns="http://www.w3.org/2000/svg" overflow="hidden" style="position:absolute;width:0;height:0">
  <defs>
    <symbol id="client-1" viewBox="0 0 28 32">
      <path d="m4.128.101 4.771 4.517-8.857-.005v21.915h23.149v-8.379l4.766 4.512V.102H4.127zm18.854 17.517L9.454 4.811h13.528v12.807zm-4.2 5.703H3.706V8.583h1.066v13.74h14.011v.997zM7.266 29.445l-.557 1.147-.557-1.147h-.467l.813 1.529v.891h.422v-.891l.811-1.529h-.465zm.7 2.421.196-.564H9.1l.197.564h.439l-.916-2.42h-.378l-.914 2.42h.437zm.665-1.907.351 1.004h-.701l.351-1.004zm2.217.946a.544.544 0 0 0-.091.303v.004c0 .204.072.37.214.497s.336.19.575.19a1 1 0 0 0 .618-.195l.136.161h.468l-.355-.421c.14-.191.209-.435.209-.733h-.351a.973.973 0 0 1-.101.444l-.468-.552.165-.12a.922.922 0 0 0 .249-.249l.002-.003a.53.53 0 0 0 .076-.275v-.013a.495.495 0 0 0-.169-.374h-.001a.61.61 0 0 0-.408-.157h-.025.001c-.195 0-.35.056-.465.166s-.173.259-.173.449c0 .078.018.157.054.241.038.083.104.184.197.302-.179.129-.3.24-.36.334zm1.093.535a.613.613 0 0 1-.382.136h-.02a.395.395 0 0 1-.27-.106.36.36 0 0 1-.108-.259v-.014.001c0-.129.067-.245.2-.346l.052-.037.528.624zm-.434-1.072c-.114-.141-.172-.257-.172-.351 0-.081.024-.148.07-.201a.239.239 0 0 1 .178-.081h.01-.001.009c.067 0 .127.026.173.068a.214.214 0 0 1 .072.161v.009a.3.3 0 0 1-.103.226l-.052.041-.184.127zm3.939 1.315c.166-.145.261-.347.286-.605h-.419c-.022.173-.075.296-.158.37s-.208.112-.372.112c-.18 0-.318-.069-.412-.206s-.14-.337-.14-.599v-.214c.003-.259.052-.453.15-.587a.494.494 0 0 1 .422-.201c.157 0 .276.039.357.116s.133.202.153.376h.419c-.027-.265-.121-.47-.285-.615s-.378-.218-.645-.218a.978.978 0 0 0-.525.142.925.925 0 0 0-.345.396l-.002.006a1.396 1.396 0 0 0-.122.576v.03-.001.226c.003.223.045.418.125.587s.193.298.339.39a.955.955 0 0 0 .511.136c.276 0 .497-.072.663-.216zm2.472-.339c.082-.18.123-.388.123-.625v-.158c0-.216-.047-.421-.131-.605l.004.009a.932.932 0 0 0-.35-.406l-.004-.002c-.152-.095-.326-.143-.524-.143s-.372.048-.525.144a.939.939 0 0 0-.354.414c-.079.175-.125.38-.125.595v.032-.002.136c.001.232.043.436.126.613a.95.95 0 0 0 .356.411.98.98 0 0 0 .525.143.971.971 0 0 0 .526-.143.941.941 0 0 0 .352-.413zm-.45-1.369c.102.143.152.349.152.618v.126c0 .272-.05.48-.151.622a.49.49 0 0 1-.429.213h-.017a.503.503 0 0 1-.413-.216l-.001-.002c-.104-.145-.155-.351-.155-.617v-.14c.002-.26.054-.462.156-.603a.498.498 0 0 1 .409-.215h.018-.001c.187 0 .33.072.431.214z"/>
    </symbol>
    <symbol id="client-2" viewBox="0 0 25 32">
      <path d="M10.723 1.806h-.084a9.985 9.985 0 0 0-.388-.014h-.28c-.244 0-.494.006-.741.018l-.028-.001-.03.001h.001a17.367 17.367 0 0 0-6.575 1.696l.104-.045-.266.128v13.626l.623-.212a23.32 23.32 0 0 1 1.731-.513c1.488-.398 3.202-.638 4.967-.661h.014v1.79c-.223.001-.439.007-.655.018h-.052a20.051 20.051 0 0 0-3.971.619l.139-.031a19.399 19.399 0 0 0-4.666 1.83l.1-.051V2.529A17.896 17.896 0 0 1 5.329.608L5.456.58a17.87 17.87 0 0 1 4.511-.582h.267c.314.008.622.022.91.044.829.06 1.597.187 2.339.378l-.09-.02v1.762a13.17 13.17 0 0 0-2.134-.326l-.045-.003-.044-.004c-.152-.013-.304-.026-.446-.026zm3.102 1.801c.391.03.795.044 1.205.044a19.413 19.413 0 0 0 4.881-.639l-.135.03a19.492 19.492 0 0 0 4.665-1.831l-.101.051v17.163a17.979 17.979 0 0 1-4.665 1.921l-.127.028a17.954 17.954 0 0 1-4.51.581h-.115c-1.177 0-2.319-.147-3.409-.425l.095.021V3.276a13.88 13.88 0 0 0 2.164.328l.051.003zm8.735.133-.623.209c-.572.193-1.151.365-1.731.518-1.551.415-3.332.657-5.169.663h-.004c-.406 0-.78-.011-1.142-.034l-.496-.033V19.08l.426.037c.395.035.803.052 1.214.052a16.554 16.554 0 0 0 4.189-.553l-.116.026a16.96 16.96 0 0 0 3.285-1.189l-.102.044.266-.128V3.739zM1.877 25.977a.916.916 0 0 0-.661-.281l-.033.001h.002-.014c-.139 0-.272.028-.393.078l.007-.003a.904.904 0 0 0-.51.512l-.002.006a1.002 1.002 0 0 0-.072.386v2.335c-.006.164.026.328.092.479a.83.83 0 0 0 .554.479c.114.031.231.048.349.048a.985.985 0 0 0 .968-.982v-.261h-.61v.221a.53.53 0 0 1-.038.199l.001-.004a.38.38 0 0 1-.089.132.426.426 0 0 1-.255.089.308.308 0 0 1-.286-.125l-.001-.001a.548.548 0 0 1-.082-.289l.001-.024v.001-2.177a.74.74 0 0 1 .075-.349.31.31 0 0 1 .262-.143l.038.002h-.002.012c.107 0 .201.052.26.131l.001.001a.494.494 0 0 1 .102.301v.013-.001.202h.604v-.249c0-.143-.027-.28-.077-.405l.003.007a.955.955 0 0 0-.205-.329zm3.626-.026a1.051 1.051 0 0 0-1.058-.191.965.965 0 0 0-.557.511l-.002.006a1.08 1.08 0 0 0-.089.452v2.239c-.004.158.026.314.089.458a.888.888 0 0 0 .236.313.964.964 0 0 0 .322.197 1.049 1.049 0 0 0 1.059-.198l-.001.001a.948.948 0 0 0 .23-.313c.063-.144.093-.301.089-.458v-2.259c0-.156-.033-.305-.092-.439l.003.007a1.016 1.016 0 0 0-.23-.327zm-.285 3.018.002.035a.398.398 0 0 1-.123.289.446.446 0 0 1-.575 0l.001.001a.398.398 0 0 1-.121-.326v.002-2.239l-.001-.034a.4.4 0 0 1 .123-.289.446.446 0 0 1 .575 0l-.001-.001a.398.398 0 0 1 .121.326v-.002 2.24zm5.046 1v-4.24h-.586l-.771 2.244h-.01l-.777-2.244h-.58v4.239h.606V27.39h.011l.593 1.823h.302l.598-1.823h.01v2.578h.606zm3.441-3.942a.834.834 0 0 0-.342-.232 1.31 1.31 0 0 0-.416-.066h-.024.001-.9v4.24h.604v-1.656h.311a1.1 1.1 0 0 0 .545-.116.88.88 0 0 0 .329-.32l.002-.004a1 1 0 0 0 .138-.369c.021-.133.033-.287.033-.444v-.04.002a2.426 2.426 0 0 0-.059-.606.906.906 0 0 0-.223-.39zm-.311 1.293a.538.538 0 0 1-.057.224l.001-.003a.342.342 0 0 1-.154.147l-.002.001a.617.617 0 0 1-.254.054l-.033-.001h.002-.275v-1.441h.311l.029-.001c.088 0 .172.02.247.055l-.004-.002a.35.35 0 0 1 .141.154l.001.002a.62.62 0 0 1 .053.236v.282c0 .098.006.201 0 .291h-.006zm3.173-1.591h-.495l-.934 4.24h.604l.177-.911h.823l.178.911h.604l-.958-4.24zm-.558 2.752.297-1.537h.011l.295 1.537h-.604zm4.46-.198h-.011l-.912-2.554h-.581v4.24h.604v-2.55h.012l.923 2.549h.568v-4.239h-.604v2.554zm3.691-2.554-.486 1.686h-.012l-.486-1.686h-.639l.83 2.448v1.791h.604v-1.791l.83-2.447h-.64zM.192 31.166h.291v.817h.198v-.817H.97v-.167H.192v.168zm2.448-.168-.382.985h.21l.081-.224h.392l.084.224h.215l-.391-.985h-.21zm-.031.595.134-.365.134.365h-.268zm2.45.027h.228v.127a.378.378 0 0 1-.234.083h-.014a.25.25 0 0 1-.195-.094.406.406 0 0 1-.073-.234l.001-.023v.001c0-.219.095-.329.283-.329l.021-.001c.097 0 .178.067.201.157v.001l.194-.038c-.042-.192-.18-.289-.417-.289h-.013a.492.492 0 0 0-.331.127.48.48 0 0 0-.141.38v-.002.023c0 .132.048.254.127.347l-.001-.001c.087.09.209.146.343.146L5.07 32h-.001.016c.155 0 .296-.06.402-.157v-.388h-.426v.166zm2.47-.622h-.198v.985h.689v-.167h-.49v-.817zm2.09 0H9.42v.985h.199v-.985zm2.042.658-.403-.657h-.193v.985h.185v-.643l.396.643h.198v-.985h-.182v.658zm1.846-.107h.49v-.167h-.49v-.215h.527v-.168h-.727v.985h.747v-.167h-.548v-.266zm4.477-.162h-.388v-.388h-.197v.984h.197v-.431h.388v.431h.198v-.985h-.198v.388zm1.858.162h.492v-.167h-.492v-.215h.529v-.168h-.726v.985h.746v-.167h-.548v-.266zm2.518.001c.171-.027.258-.118.258-.274a.23.23 0 0 0-.096-.219h-.001a.555.555 0 0 0-.25-.059l-.04.001h.002-.417v.984h.198v-.412h.055c.039 0 .076.008.109.023l-.002-.001a.201.201 0 0 1 .07.072l.215.313h.236l-.12-.192a.704.704 0 0 0-.215-.235l-.002-.002zm-.199-.137h-.146v-.247h.156a.515.515 0 0 1 .205.024l-.004-.001a.13.13 0 0 1-.009.2.537.537 0 0 1-.164.025l-.039-.001h.002zm2.099.136h.49v-.167h-.49v-.215h.529v-.168h-.729v.985h.747v-.167h-.548v-.266z"/>
    </symbol>
    <symbol id="client-3" viewBox="0 0 34 32">
      <path d="M5.341 31.393a.102.102 0 0 1 .066.027l.169.162a1.406 1.406 0 0 1-.477.308c-.188.07-.405.111-.632.111L4.421 32h.002a1.789 1.789 0 0 1-.635-.103 1.395 1.395 0 0 1-.48-.291l.001.001a1.305 1.305 0 0 1-.306-.441L3 31.157a1.472 1.472 0 0 1-.109-.561v-.017.001-.03c0-.396.172-.751.444-.997l.001-.001c.145-.127.318-.226.508-.293.209-.07.431-.105.655-.103h.04c.203 0 .398.034.58.097l-.012-.004c.168.064.322.152.456.26l-.142.172a.147.147 0 0 1-.035.031h-.001a.09.09 0 0 1-.049.014h-.008a.149.149 0 0 1-.063-.018h.001l-.075-.047-.106-.059a1.191 1.191 0 0 0-.327-.102l-.007-.001a1.421 1.421 0 0 0-.234-.019h-.019.001-.016c-.163 0-.319.029-.464.081l.01-.003c-.143.05-.266.124-.37.218l.001-.001a1.006 1.006 0 0 0-.239.346c-.055.13-.086.281-.086.44v.017-.001.019c0 .16.032.313.089.453l-.003-.008a.977.977 0 0 0 .587.558c.138.05.287.075.436.074.087.001.173-.004.259-.015.216-.022.408-.108.561-.239l-.001.001a.133.133 0 0 1 .08-.03zm4.894-.813v.017c0 .201-.042.392-.118.564l.004-.009a1.242 1.242 0 0 1-.317.443l-.001.001a1.466 1.466 0 0 1-.491.288l-.01.003a2.083 2.083 0 0 1-1.303-.004l.015.004a1.488 1.488 0 0 1-.499-.294l.001.001a1.294 1.294 0 0 1-.319-.441l-.003-.008a1.488 1.488 0 0 1 .004-1.156l-.004.01c.072-.168.182-.321.322-.451a1.46 1.46 0 0 1 .497-.282 2.018 2.018 0 0 1 1.302.004l-.014-.004c.188.066.358.166.5.292.14.128.249.28.32.444.078.185.117.38.114.577zm-.445 0v-.024c0-.157-.03-.307-.084-.445l.003.008a.951.951 0 0 0-.578-.559l-.007-.002a1.494 1.494 0 0 0-.947.004l.011-.003c-.139.05-.259.124-.359.218a.915.915 0 0 0-.226.338l-.002.006a1.33 1.33 0 0 0 .003.929l-.003-.009a.945.945 0 0 0 .58.558l.007.002c.301.099.634.099.936 0a.978.978 0 0 0 .357-.215.964.964 0 0 0 .227-.344c.057-.148.084-.304.081-.46zm3.784.482.045.103a1.658 1.658 0 0 1 .103-.204l1.082-1.71c.022-.03.04-.048.062-.054s.048-.01.074-.01h.015-.001.32v2.782h-.379v-2.131a.683.683 0 0 1 0-.098v.002l-1.09 1.734a.166.166 0 0 1-.063.063h-.001a.184.184 0 0 1-.091.023h-.065a.191.191 0 0 1-.092-.024h.001a.163.163 0 0 1-.063-.062v-.001L12.31 29.73v2.232h-.366v-2.776h.334a.31.31 0 0 1 .076.01h-.002a.12.12 0 0 1 .059.054l1.106 1.712c.022.031.04.064.055.099zm4.074-.138v1.041h-.423v-2.777h.945c.179-.003.357.018.528.061.137.034.264.093.373.173.09.072.162.163.21.267l.002.005a.817.817 0 0 1 .072.356v.018c0 .251-.12.474-.305.614l-.002.001a1.075 1.075 0 0 1-.375.183 1.751 1.751 0 0 1-.477.065h-.035l-.511-.008zm0-.298h.513c.111.002.222-.013.329-.042a.728.728 0 0 0 .239-.121l-.002.001a.534.534 0 0 0 .194-.412v-.006l.001-.03a.471.471 0 0 0-.044-.199l.001.003a.551.551 0 0 0-.147-.189l-.001-.001a.904.904 0 0 0-.573-.149h.003-.513v1.145zm5.695 1.343h-.34a.162.162 0 0 1-.087-.026h.001a.161.161 0 0 1-.055-.064v-.001l-.288-.671h-1.448l-.298.671a.155.155 0 0 1-.142.09h-.34l1.27-2.782h.441l1.288 2.782zm-2.098-1.033h1.196l-.505-1.132a1.896 1.896 0 0 1-.095-.261l-.049.145a1.226 1.226 0 0 1-.05.126l.003-.008-.5 1.13zm3.928-1.735a.195.195 0 0 1 .064.049l1.853 2.097v-2.159h.379v2.782h-.216a.198.198 0 0 1-.084-.018h.001a.229.229 0 0 1-.067-.051l-1.852-2.095a.683.683 0 0 1 0 .098v-.002 2.067h-.379v-2.782h.225c.026 0 .052.005.076.013zm5.42 1.662v1.104h-.424v-1.103l-1.172-1.675h.388c.03 0 .058.009.082.024h-.001c.023.019.043.04.058.063l.733 1.081c.05.071.094.152.126.239l.003.008.056-.12a.895.895 0 0 1 .072-.127l.723-1.088a.338.338 0 0 1 .054-.059.14.14 0 0 1 .084-.027h.392l-1.173 1.682zM13.364 24.52c.185.02.371.037.559.051 2.86-1.111 5.277-2.929 6.953-5.228s2.534-4.975 2.469-7.696l-3.15-2.737c.64 2.896.34 5.89-.866 8.647s-3.271 5.167-5.965 6.962z"/>
      <path d="m12.24 24.393.085.016c2.878-1.79 5.072-4.287 6.299-7.171s1.43-6.021.583-9.006L14.72 4.334c1.814 3.205 2.546 6.791 2.106 10.342-.438 3.551-2.028 6.92-4.585 9.717zm15.217-9.531c-.762 2.989-2.614 5.685-5.279 7.687a16.624 16.624 0 0 1-2.415 1.52l-.094.044c2.171-.554 4.166-1.534 5.832-2.864s2.958-2.975 3.776-4.808l-1.82-1.58z"/>
      <path d="m26.743 14.422-2.591-2.251c-.05 2.567-.89 5.075-2.432 7.264s-3.733 3.98-6.341 5.185h.012c.581 0 1.162-.031 1.739-.09 2.438-.865 4.592-2.24 6.268-4.004s2.826-3.86 3.344-6.104zM12.614 2.689 9.523 0C6.76.928 4.384 2.559 2.704 4.679S.123 9.312.114 11.885c.01 2.844 1.112 5.604 3.131 7.843 2.018 2.238 4.839 3.828 8.014 4.518 2.835-3.001 4.495-6.709 4.738-10.586s-.943-7.72-3.385-10.972zm21.271 11.319c-.011-3.374-1.559-6.607-4.305-8.993s-6.468-3.731-10.352-3.741h-.029c-1.867 0-3.662.311-5.335.884l.116-.034 18.925 16.442c.617-1.339.977-2.906.979-4.557v-.001z"/>
    </symbol>
    <symbol id="client-4" viewBox="0 0 54 32">
      <path d="M10.326 9.788h-.002c-1.883 0-3.41 1.356-3.41 3.031v.002c0 1.674 1.527 3.031 3.41 3.031h.002c1.883 0 3.41-1.357 3.41-3.031v-.002c0-1.674-1.527-3.032-3.41-3.032zm25.172-.968c-.006-2.325-1.047-4.554-2.897-6.198S28.244.052 25.628.047c-2.617.004-5.126.93-6.976 2.574-1.851 1.645-2.893 3.873-2.898 6.199v12.821s19.741-1.954 19.744-12.819V8.82zM0 25.848c.005 1.618.731 3.168 2.017 4.312s3.031 1.789 4.851 1.793c1.82-.005 3.564-.649 4.851-1.793s2.012-2.693 2.017-4.311v-8.921S0 18.289 0 25.847zm6.868 1.598c-.356 0-.703-.094-.999-.269a1.673 1.673 0 0 1-.658-.707l-.004-.01a1.416 1.416 0 0 1-.101-.932l-.002.01c.069-.31.24-.595.492-.819.251-.22.564-.375.909-.436l.011-.002a2.018 2.018 0 0 1 1.054.095l-.014-.005c.329.121.61.326.807.589s.303.572.303.887c.001.21-.045.42-.135.614a1.614 1.614 0 0 1-.388.519l-.002.001a1.827 1.827 0 0 1-.584.348 1.948 1.948 0 0 1-.688.123h-.001v-.006zm12.556-2.862v3.351h-.69v-3.351h.691zm1.335 1.432v.538h-1.524v-.538h1.524zm.161-1.432v.541h-1.684v-.541h1.685zm3.153 1.598v.159c0 .254-.035.483-.104.686a1.51 1.51 0 0 1-.294.52l.002-.002a1.266 1.266 0 0 1-.451.324c-.173.076-.366.113-.577.113s-.403-.038-.578-.113a1.31 1.31 0 0 1-.45-.323l-.001-.001a1.514 1.514 0 0 1-.294-.508l-.003-.011a2.072 2.072 0 0 1-.104-.655v-.031.002-.16c0-.256.035-.485.104-.686s.166-.375.292-.518c.123-.138.273-.249.443-.323l.008-.003c.175-.076.368-.112.578-.112.212 0 .404.037.577.112.175.076.325.185.451.327a1.5 1.5 0 0 1 .294.518c.071.2.106.429.106.686zm-.698.159v-.163c0-.178-.016-.335-.048-.47a1.034 1.034 0 0 0-.145-.345l.002.004a.62.62 0 0 0-.227-.205l-.003-.002a.652.652 0 0 0-.298-.072h-.012.001a.666.666 0 0 0-.311.071.62.62 0 0 0-.226.205l-.001.002a1.058 1.058 0 0 0-.139.334l-.001.007a1.986 1.986 0 0 0-.049.444v.028-.001.163c0 .176.016.332.049.469.032.135.079.25.142.343a.634.634 0 0 0 .227.207l.003.002c.09.048.194.072.311.072s.22-.024.31-.071a.626.626 0 0 0 .226-.207l.001-.002c.063-.099.112-.213.139-.336l.001-.007a2.07 2.07 0 0 0 .048-.469zm2.939.718v-.007a.433.433 0 0 0-.029-.157l.001.003a.303.303 0 0 0-.097-.133h-.001a.818.818 0 0 0-.194-.12l-.005-.002a2.437 2.437 0 0 0-.314-.119l-.02-.005a4.187 4.187 0 0 1-.459-.176l.027.011a1.817 1.817 0 0 1-.363-.217l.004.003a.97.97 0 0 1-.241-.282l-.002-.005a.78.78 0 0 1-.088-.364v-.018.001-.011c0-.135.034-.262.094-.373l-.002.004a.86.86 0 0 1 .257-.294c.111-.083.241-.147.391-.191.152-.045.319-.067.5-.067.247 0 .463.044.646.134s.327.21.428.365a.939.939 0 0 1 .155.532h-.686v-.01a.513.513 0 0 0-.064-.25l.001.003a.427.427 0 0 0-.181-.176l-.002-.001a.64.64 0 0 0-.286-.066h-.024.001-.023a.708.708 0 0 0-.28.057l.005-.002a.4.4 0 0 0-.179.144l-.001.001a.35.35 0 0 0-.06.198v.005a.29.29 0 0 0 .042.154.499.499 0 0 0 .127.128l.002.001c.057.04.126.079.209.113s.179.07.288.104c.182.055.342.118.481.186.14.069.256.147.35.232a.842.842 0 0 1 .283.663l.001.032c0 .267-.13.503-.33.649l-.002.002a1.12 1.12 0 0 1-.384.181c-.144.04-.309.063-.48.063h-.02.001-.001c-.174 0-.343-.024-.503-.068l.013.003a1.486 1.486 0 0 1-.445-.204l.005.003a1.026 1.026 0 0 1-.31-.336l-.003-.005a.969.969 0 0 1-.118-.49h.693c0 .105.016.192.049.265a.44.44 0 0 0 .134.174l.001.001c.06.044.131.078.208.096l.004.001c.083.02.173.03.272.03h.024c.098 0 .19-.019.275-.053l-.005.002a.364.364 0 0 0 .23-.338v-.005zm2.657-2.475v3.351h-.687v-3.351h.687zm1.032 0v.541H27.27v-.541h2.733zm2.641 2.813v.539h-1.783v-.539h1.783zm-1.558-2.813v3.351h-.691v-3.351h.691zm1.326 1.366v.525h-1.55v-.525h1.55zm.23-1.366v.541h-1.781v-.541h1.781zm.405 0h1.249c.257 0 .477.039.661.116s.327.19.427.34a.98.98 0 0 1 .149.554c0 .18-.03.334-.091.463a.885.885 0 0 1-.254.318l-.002.001c-.11.084-.237.153-.375.199l-.009.003-.218.116h-1.086l-.005-.539H34.323a.62.62 0 0 0 .282-.067l-.004.002a.43.43 0 0 0 .179-.177l.001-.002a.55.55 0 0 0 .062-.255v-.013.001-.016a.592.592 0 0 0-.062-.266l.002.004a.407.407 0 0 0-.18-.178l-.002-.001a.658.658 0 0 0-.284-.063H33.737v2.81h-.691v-3.351zm1.873 3.351-.764-1.493.73-.005.773 1.466v.032h-.738zm3.624-1.193h-.854v-.54h.854l.028.001a.69.69 0 0 0 .298-.067l-.004.002a.419.419 0 0 0 .181-.182l.001-.002a.663.663 0 0 0-.002-.547l.002.004a.47.47 0 0 0-.18-.206l-.002-.001a.588.588 0 0 0-.297-.079l-.026.001h.001-.614v2.81h-.691v-3.351h1.305c.262 0 .487.047.674.143.188.094.333.223.433.389s.149.355.149.569c0 .216-.05.403-.149.562-.1.157-.243.279-.432.365s-.413.129-.675.129zm3.981.655v.539h-1.783v-.539h1.783zm-1.557-2.813v3.351h-.69v-3.351h.69zm1.325 1.366v.525h-1.55v-.525h1.55zm.23-1.366v.541h-1.781v-.541h1.781zm1.949 0v3.351h-.688v-3.351h.688zm1.03 0v.541h-2.733v-.541h2.733zm2.643 2.813v.539h-1.783v-.539h1.783zm-1.559-2.813v3.351h-.69v-3.351h.691zm1.326 1.366v.525h-1.551v-.525h1.551zm.231-1.365v.541h-1.782v-.541h1.782zm.404 0h1.25c.256 0 .477.039.66.116.186.076.329.19.429.34s.149.335.149.554c0 .18-.031.334-.092.463a.882.882 0 0 1-.253.318l-.002.001a1.3 1.3 0 0 1-.376.199l-.009.003-.218.116h-1.086l-.004-.539H49.825a.62.62 0 0 0 .282-.067l-.004.002a.428.428 0 0 0 .178-.177l.001-.002a.542.542 0 0 0 .063-.256v-.011.001-.015a.603.603 0 0 0-.062-.268l.002.004a.405.405 0 0 0-.179-.178l-.002-.001a.658.658 0 0 0-.284-.063H49.239v2.81h-.69v-3.352zm1.873 3.351-.764-1.493.731-.005.772 1.466v.032h-.738zm2.891-.876v-.007a.433.433 0 0 0-.029-.157l.001.003a.309.309 0 0 0-.096-.133h-.001a.825.825 0 0 0-.195-.12l-.006-.002a2.437 2.437 0 0 0-.314-.119l-.02-.005a4.35 4.35 0 0 1-.459-.176l.027.011a1.854 1.854 0 0 1-.364-.217l.004.003a.97.97 0 0 1-.241-.282l-.002-.005a.78.78 0 0 1-.088-.364v-.018.001-.011c0-.135.034-.262.094-.373l-.002.004a.864.864 0 0 1 .258-.294c.11-.083.24-.147.391-.191s.318-.067.499-.067c.247 0 .464.044.646.134.185.089.327.21.428.365a.939.939 0 0 1 .155.532h-.686v-.01a.513.513 0 0 0-.064-.25l.001.003a.427.427 0 0 0-.181-.176l-.002-.001a.654.654 0 0 0-.286-.066h-.023.001-.024c-.1 0-.194.02-.28.057l.005-.002a.4.4 0 0 0-.179.144l-.001.001a.35.35 0 0 0-.06.198v.005a.29.29 0 0 0 .042.154.499.499 0 0 0 .127.128l.002.001c.057.04.127.079.21.113s.178.07.287.104c.182.055.342.118.481.186.14.069.256.147.35.232a.842.842 0 0 1 .283.663.81.81 0 0 1-.331.683c-.108.08-.236.141-.385.181a1.912 1.912 0 0 1-.989-.002 1.486 1.486 0 0 1-.445-.204l.005.003a1.026 1.026 0 0 1-.31-.336l-.003-.005a.969.969 0 0 1-.118-.49h.693c0 .105.016.192.049.265a.44.44 0 0 0 .134.174l.001.001c.06.044.131.078.208.096l.004.001c.083.02.173.03.272.03h.024a.74.74 0 0 0 .275-.053l-.005.002a.364.364 0 0 0 .23-.338v-.005z"/>
    </symbol>
    <symbol id="client-5" viewBox="0 0 44 32">
      <path d="M3.344 26.732c.172.194.263.438.258.687a1.014 1.014 0 0 1-.095.482l.003-.006a1.098 1.098 0 0 1-.306.391l-.002.002a1.83 1.83 0 0 1-1.167.317h.006-2.043v-4.356h2.001a1.815 1.815 0 0 1 1.116.293l-.007-.004c.13.1.232.225.299.366a.915.915 0 0 1 .089.45.957.957 0 0 1-.232.666c-.156.173-.37.293-.609.341.271.045.516.177.69.373zm-2.397-.657h.856a.872.872 0 0 0 .544-.145.516.516 0 0 0 .144-.19l.001-.003a.473.473 0 0 0 .038-.234v.002l.001-.037a.505.505 0 0 0-.041-.198l.001.003a.546.546 0 0 0-.142-.194l-.001-.001a.875.875 0 0 0-.563-.147h.003-.842v1.143zm1.483 1.67a.544.544 0 0 0 .156-.197l.001-.003a.488.488 0 0 0 .046-.208l-.001-.036v.002l.001-.032a.512.512 0 0 0-.049-.218l.001.003a.56.56 0 0 0-.159-.2l-.001-.001a.932.932 0 0 0-.584-.157h.003-.897v1.198h.909a.96.96 0 0 0 .574-.151zm5.004.86-1.112-1.703h-.419v1.703h-.958v-4.356h1.813a1.891 1.891 0 0 1 1.266.374l-.005-.004a1.337 1.337 0 0 1 .434.97 1.3 1.3 0 0 1-.301.835l.002-.002a1.51 1.51 0 0 1-.857.442l-.008.001 1.186 1.741H7.434zm-1.531-2.297h.783c.544 0 .816-.22.816-.659l.001-.035a.602.602 0 0 0-.047-.233l.001.004a.66.66 0 0 0-.155-.226.898.898 0 0 0-.619-.177h.003-.792l.009 1.326zm6.766 1.42h-1.908l-.337.878H9.42l1.752-4.308h1.086l1.746 4.308h-1.003l-.33-.877zm-.255-.66-.697-1.839-.697 1.839h1.395zm6.808 1.537h-.95l-2.132-2.962v2.962h-.949v-4.357h.949l2.132 2.98v-2.98h.95v4.357zm5.426-1.043a1.974 1.974 0 0 1-.861.768c-.37.174-.803.275-1.259.275l-.082-.001h.004-1.692v-4.356h1.692l.08-.001c.455 0 .888.099 1.277.276l-.019-.008c.364.169.663.433.86.76.196.355.298.746.298 1.143s-.102.788-.298 1.143zm-1.088-.104c.258-.27.418-.636.42-1.04 0-.381-.149-.75-.42-1.039a1.742 1.742 0 0 0-1.196-.37h.005-.66v2.82h.66a1.747 1.747 0 0 0 1.194-.373l-.004.003zM13.265.015s12.271 4.242 12.011 10.38v10.382s-12.262-4.243-12.007-10.382L13.265.015zm22.942 18.331c2.318-1.46 4.998-2.364 7.797-2.63v-3.251c-3.224 1.139-5.96 3.202-7.797 5.881z"/>
      <path d="M34.815 19.326c1.896-3.497 5.185-6.196 9.188-7.541V2.42S26.527 8.462 26.897 17.203v14.781s.779-.27 2.004-.777c0-.472 0-.949.056-1.428.361-4.057 2.468-7.818 5.857-10.454z"/>
      <path d="M33.153 24.817c.092-1.025.296-2.039.611-3.026-2.111 2.276-3.389 5.102-3.654 8.077-.026.281-.04.561-.047.852a48.575 48.575 0 0 0 3.642-1.76l-.282.138a14.03 14.03 0 0 1-.272-4.28zm.695.053a13.446 13.446 0 0 0 .231 3.963l-.015-.087c4.774-2.616 10.14-6.658 9.932-11.542v-.426c-3.411.35-6.603 1.715-9.084 3.886a13.22 13.22 0 0 0-1.06 4.154l-.004.052z"/>
    </symbol>
    <symbol id="client-6" viewBox="0 0 64 32">
      <path d="M32.108 15.098a1.996 1.996 0 0 1-.412-1.363v.006-1.968c0-.603.137-1.061.411-1.375.273-.314.743-.469 1.409-.468.626 0 1.071.134 1.332.401.287.341.427.757.394 1.177v.463h-1.119v-.469a2.349 2.349 0 0 0-.033-.458.448.448 0 0 0-.159-.272l-.001-.001a.644.644 0 0 0-.408-.106h.002a.676.676 0 0 0-.429.113l.003-.002a.521.521 0 0 0-.185.297l-.001.004c-.028.135-.045.29-.045.448v.04-.002 2.387c-.018.23.032.461.143.67a.525.525 0 0 0 .22.161l.004.001a.608.608 0 0 0 .292.037h-.003a.608.608 0 0 0 .398-.109l-.002.001a.482.482 0 0 0 .167-.287v-.003c.026-.158.038-.319.035-.478v-.484h1.12v.442a1.795 1.795 0 0 1-.389 1.241l.003-.004c-.257.292-.696.438-1.34.438s-1.131-.156-1.407-.48zm4.662.021c-.283-.307-.424-.753-.424-1.343v-2.07c0-.585.141-1.027.424-1.327s.755-.45 1.419-.448c.658 0 1.128.15 1.412.448.283.3.427.742.427 1.327v2.069c0 .585-.143 1.033-.431 1.342s-.755.462-1.407.462-1.133-.156-1.419-.46zm1.94-.497c.102-.191.147-.402.135-.612v-2.534l.002-.068c0-.195-.05-.378-.137-.538l.003.006a.53.53 0 0 0-.225-.163l-.004-.001a.614.614 0 0 0-.298-.035h.003a.646.646 0 0 0-.301.036l.004-.002a.54.54 0 0 0-.229.164l-.001.001a1.103 1.103 0 0 0-.135.6v2.545c-.014.211.032.421.135.613a.715.715 0 0 0 .236.152.781.781 0 0 0 .581-.002l-.005.002a.7.7 0 0 0 .236-.152v-.012zm2.664-4.63h1.205l.906 3.818.928-3.818h1.172l.119 5.511h-.867l-.093-3.83-.895 3.83h-.696l-.927-3.844-.086 3.844h-.876l.109-5.511zm5.681 0h1.878c1.081 0 1.623.521 1.623 1.565 0 .999-.57 1.498-1.709 1.497h-.639v2.449h-1.159l.007-5.511zm1.604 2.355a.911.911 0 0 0 .341-.026.83.83 0 0 0 .296-.147.89.89 0 0 0 .167-.622l.001-.061c0-.156-.021-.308-.06-.451l.003.012a.419.419 0 0 0-.085-.152.477.477 0 0 0-.143-.109l-.003-.001a1.182 1.182 0 0 0-.457-.09l-.064.002h.003-.45v1.647h.45zm3.568-2.355h1.244l1.277 5.511h-1.081l-.253-1.271h-1.11l-.259 1.271h-1.096l1.277-5.511zm1.064 3.602-.434-2.313-.433 2.313h.867zm2.489-3.602h.812l1.552 3.144V9.992h.962v5.511h-.772l-1.563-3.282v3.282h-.994l.002-5.511zm5.58 3.409L60.069 10h1.088l.788 2.185.739-2.185h1.064l-1.275 3.402v2.101h-1.112v-2.102zm-27.462 4.512v.288h-.946v2.239h-.396v-2.239h-.95v-.288h2.293zm2.965 2.527h-.314a.138.138 0 0 1-.078-.024.138.138 0 0 1-.05-.057v-.001l-.273-.6h-1.312l-.273.6a.163.163 0 0 1-.042.068.142.142 0 0 1-.079.024h-.312l1.159-2.528h.403l1.174 2.518zm-1.92-.938h1.094l-.464-1.029a1.877 1.877 0 0 1-.082-.225l-.003-.013-.044.135-.042.106-.459 1.027zm3.918.69c.073.004.145.004.218 0 .062-.006.124-.016.185-.03.056-.011.112-.027.167-.046.051-.018.102-.04.155-.062v-.568h-.467a.094.094 0 0 1-.059-.021.07.07 0 0 1-.018-.02.046.046 0 0 1-.006-.023v-.197h.9v.969a1.753 1.753 0 0 1-.476.203l-.012.003a2.05 2.05 0 0 1-.29.052c-.112.01-.225.016-.338.016h-.015c-.204 0-.4-.035-.582-.098l.012.004a1.424 1.424 0 0 1-.466-.266l.002.002a1.235 1.235 0 0 1-.296-.392l-.003-.007a1.25 1.25 0 0 1-.107-.508v-.018.001-.015c0-.185.038-.361.108-.521l-.003.008c.066-.15.169-.287.299-.401.132-.114.29-.202.464-.262a1.91 1.91 0 0 1 .621-.094c.108 0 .215.007.322.022.094.014.187.035.276.064a1.525 1.525 0 0 1 .434.232l-.111.156a.1.1 0 0 1-.037.034h-.001a.13.13 0 0 1-.053.014.158.158 0 0 1-.072-.02h.001a1.334 1.334 0 0 1-.121-.064l.007.004a1.014 1.014 0 0 0-.148-.066l-.007-.002a1.296 1.296 0 0 0-.205-.054l-.009-.001a1.725 1.725 0 0 0-.279-.022h-.016.001-.014a1.38 1.38 0 0 0-.443.073l.01-.003a.879.879 0 0 0-.554.508l-.002.006a1.186 1.186 0 0 0 .002.851l-.003-.008a.98.98 0 0 0 .57.519c.147.044.304.061.459.05zm3.695-.04h1.266v.288H42.17v-2.528h.396l-.009 2.239zm2.582.288h-.396v-2.528h.396v2.528zm1.474-2.515a.185.185 0 0 1 .061.046l1.694 1.905a.596.596 0 0 1 0-.092v.002-1.883h.345v2.538H48.5a.204.204 0 0 1-.074-.015h.001a.229.229 0 0 1-.062-.048l-1.692-1.904v1.965h-.332v-2.528h.206c.023 0 .045.004.065.011zm5.019-.012v.278h-1.404v.834h1.138v.268h-1.138v.863h1.404v.278h-1.812v-2.521h1.812zM10.094 2.303l17.601 4.314v15.119l-17.601-4.312V2.302zM8.965 1.014v17.145l19.856 4.869V5.885L8.966 1.015z"/>
      <path d="M19.607 30.986-.252 26.113V8.971l19.859 4.871v17.144zM9.294 2.109 26.665 6.37l-7.387 6.38L1.903 8.487l7.391-6.379zm-.329-1.095L-.251 8.97l19.859 4.872 9.214-7.958-19.856-4.87zm11.759 29.008 8.097-6.993-8.098-1.986v8.98z"/>
    </symbol>
    <symbol id="contact-mail" viewBox="0 0 32 32">
      <path d="M29 4H3C1.346 4 0 5.346 0 7v18c0 1.654 1.346 3 3 3h26c1.654 0 3-1.346 3-3V7c0-1.654-1.346-3-3-3zm0 2c.136 0 .266.028.384.078L16 17.678 2.616 6.078A.971.971 0 0 1 3 6h26zm0 20H3a1 1 0 0 1-1-1V8.19l13.344 11.566a.997.997 0 0 0 1.313-.001l-.001.001L30 8.19V25a1 1 0 0 1-1 1z"/>
    </symbol>
    <symbol id="contact-phone" viewBox="0 0 20 32">
      <path d="M17 0H3C1.346 0 0 1.346 0 3v26c0 1.654 1.346 3 3 3h14c1.654 0 3-1.346 3-3V3c0-1.654-1.346-3-3-3zM3 2h14a1 1 0 0 1 1 1v21H2V3a1 1 0 0 1 1-1zm14 28H3a1 1 0 0 1-1-1v-3h16v3a1 1 0 0 1-1 1z"/>
      <path d="M4.708 27.478a.889.889 0 0 1 .001 1.319l-.001.001a1.048 1.048 0 0 1-1.417 0l.001.001a.889.889 0 0 1-.001-1.319l.001-.001a1.048 1.048 0 0 1 1.417 0l-.001-.001z"/>
    </symbol>
    <symbol id="feature-antenna" viewBox="0 0 32 32">
      <path fill="var(--color1, #212121)" d="m30.773 22.098-8.443-8.505.937-4.616c.225.09.485.144.758.146h.033a2.16 2.16 0 1 0-2.029-1.42l-.005-.015-4.96.606L8.973.161a.53.53 0 0 0-.376-.16.536.536 0 0 0-.373.155L6.712 1.66a.535.535 0 0 0 0 .754l.814.825C6.383 5.301 5.71 7.761 5.71 10.378c0 4.106 1.656 7.824 4.336 10.525l-.001-.001a.49.49 0 0 0 .146.097 2.986 2.986 0 0 0-.052.546v6.188h-6.4a2.669 2.669 0 0 0-2.667 2.666v1.067c0 .295.239.534.534.534H26.14a.534.534 0 0 0 .533-.534v-1.067a2.67 2.67 0 0 0-2.666-2.666h-6.4v-2.742a14.784 14.784 0 0 0 10.166-1.502l-.077.039.818.823a.534.534 0 0 0 .376.16.536.536 0 0 0 .373-.155l1.512-1.504a.535.535 0 0 0 0-.754zM23.28 6.233a1.067 1.067 0 1 1 .752 1.822h-.004a1.066 1.066 0 0 1-.747-1.822h-.002zm-1.256 3.504-.598 2.946-1.175-1.183 1.774-1.763zm-.605-.902-1.92 1.909-1.486-1.493 3.406-.416zM24.004 28.8a1.6 1.6 0 0 1 1.6 1.6v.534H2.138V30.4a1.6 1.6 0 0 1 1.6-1.6h20.267zm-7.466-2.134v1.067h-5.334v-1.067h5.334zM11.204 25.6v-4.053c0-1.294 1.196-2.346 2.667-2.346s2.667 1.053 2.667 2.346V25.6h-5.334zm6.4-1.696v-2.357c0-1.882-1.675-3.413-3.733-3.413h-.058c-1.353 0-2.54.707-3.213 1.771l-.009.016a13.817 13.817 0 0 1-3.812-9.55c0-2.314.567-4.496 1.569-6.414l-.036.077 18.602 18.709c-1.823.947-3.979 1.502-6.266 1.502-1.079 0-2.128-.124-3.136-.357l.093.018zm11.289-.684L7.836 2.039l.754-.752 7.935 7.98c.004 0 .006.007.01.01l13.114 13.191-.757.752z"/>
      <path fill="var(--color2, #2196f3)" d="M13.876 20.267h-.007a1.6 1.6 0 0 0-.003 3.2h.007a1.6 1.6 0 0 0 .002-3.2zm.373 1.978a.534.534 0 1 1-.378-.912.533.533 0 0 1 .374.911h.005z"/>
    </symbol>
    <symbol id="feature-astronaut" viewBox="0 0 38 32">
      <path fill="var(--color2, #2196f3)" d="M37.104 2.994a.607.607 0 0 0-.484-.41h-.003l-2.166-.315-.969-1.962c-.203-.413-.881-.413-1.083 0l-.969 1.962-2.166.315a.605.605 0 0 0-.336 1.031l1.568 1.528-.37 2.156a.606.606 0 0 0 .877.638l1.937-1.019 1.937 1.019a.605.605 0 0 0 .877-.641l.001.004-.37-2.156 1.567-1.528a.607.607 0 0 0 .151-.624l.001.004zm-2.791 1.504a.607.607 0 0 0-.174.535l.216 1.263-1.134-.596a.598.598 0 0 0-.567.001l.003-.002-1.134.596.216-1.263a.604.604 0 0 0-.173-.535l-.919-.895 1.268-.184a.604.604 0 0 0 .455-.331l.567-1.148.567 1.148a.602.602 0 0 0 .455.331l1.268.184-.917.895zm-3.828 16.627h-1.209v1.209h1.209v-1.209zm0 2.419h-1.209v1.208h1.209v-1.208zm1.209-1.209h-1.209v1.209h1.209v-1.209zm-2.418 0h-1.209v1.209h1.209v-1.209zm-3.022 5.44h-1.209v1.209h1.209v-1.209zm0 2.418h-1.209v1.209h1.209v-1.209zm1.209-1.209h-1.209v1.209h1.209v-1.209zm-2.418 0h-1.209v1.209h1.209v-1.209zM19 25.357h-1.209v1.209H19v-1.209zm0 2.418h-1.209v1.209H19v-1.209zm1.209-1.21H19v1.209h1.209v-1.209zm-2.418 0h-1.209v1.209h1.209v-1.209zM7.515 4.805H6.306v1.209h1.209V4.805zm0 2.418H6.306v1.209h1.209V7.224zm1.209-1.209H7.515v1.209h1.209V6.014zm-2.418 0H5.097v1.209h1.209V6.014z"/>
      <path fill="var(--color1, #212121)" d="M28.877 13.914a2.01 2.01 0 0 0-1.337-.797l-.011-.001a2.007 2.007 0 0 0-1.523.402l.005-.003-1.42 1.088-2.151 1.606-1.539-.613c2.744-1.231 4.662-3.976 4.662-7.163 0-4.333-3.539-7.858-7.889-7.858S9.784 4.1 9.784 8.433c0 1.57.47 3.031 1.269 4.26l-3.138-.027c-.01 0-.018.005-.026.005a.588.588 0 0 0-.18.037l.004-.001c-.015.005-.03.008-.044.015l-.022.007-3.664 1.809-.002.001-2.146 1.032a.421.421 0 0 0-.073.041l.002-.001a2.02 2.02 0 0 0-.673 2.613l-.005-.011c.249.48.671.841 1.183 1.003l.014.004a2.009 2.009 0 0 0 1.573-.151l-.011.005 1.573-.836 2.566-1.325 1.538-.009-6.168 6.138-.002.002-1.517 1.511c-.343.339-.556.81-.556 1.33v.006a1.89 1.89 0 0 0 1.89 1.886h.003c.485 0 .968-.184 1.338-.55L6 25.744l1.973-1.473 1.021 1.017-3.515 3.5c-.343.339-.556.81-.556 1.33v.005a1.885 1.885 0 0 0 1.889 1.886h.004c.484 0 .969-.183 1.338-.55l5.087-5.069c.008-.007.018-.01.025-.018l5.855-6.413 3.934.56a.6.6 0 0 0 .297-.038c.02-.007.037-.017.056-.026.022-.011.045-.017.065-.031l3.642-2.418c.013-.009.021-.024.033-.034.015-.011.033-.016.046-.029l1.44-1.35a2.01 2.01 0 0 0 .639-1.473c0-.453-.15-.872-.402-1.209l.004.005zM3.281 18.006a.802.802 0 0 1-.639.056l.006.002a.813.813 0 0 1-.571-.774c0-.267.129-.504.328-.651l.002-.002 1.489-.717.359 1.048.15.44-1.124.597zm3.963-2.071-1.755.907-.289-.846-.208-.608 2.297-1.134-.045 1.682zm17.113-7.503a6.575 6.575 0 0 1-.679 2.901L18.939 9.18a2.108 2.108 0 0 0-.887-1.568l-.007-.004 1.66-5.509c2.694.857 4.652 3.371 4.652 6.333zm-13.361 0c0-3.666 2.997-6.649 6.681-6.649.287 0 .567.024.845.06L16.899 7.23c-.022 0-.042-.007-.065-.007h-.001c-1.17 0-2.118.947-2.121 2.116a2.122 2.122 0 0 0 2.122 2.115h.001c.788 0 1.467-.434 1.834-1.07l4.378 1.989a6.679 6.679 0 0 1-5.369 2.709c-3.684 0-6.681-2.983-6.681-6.649zm6.751.906c0 .5-.41.907-.914.907h-.002a.91.91 0 0 1-.911-.906c0-.5.409-.907.913-.907s.913.407.913.907zM3.659 26.366a.688.688 0 0 1-.969.001.672.672 0 0 1-.001-.956l1.091-1.086.966.961-1.086 1.082zm3.643 4.231a.688.688 0 0 1-.969.001.672.672 0 0 1 0-.956l1.091-1.087.965.961-1.088 1.083zm3.946-3.931-.002.002-2 1.995-.966-.961 2-1.991a.615.615 0 0 0 .102-.154c.008-.016.023-.029.03-.045.019-.047.022-.097.029-.146.004-.028.016-.054.016-.083 0-.04-.015-.079-.023-.119-.007-.036-.007-.073-.021-.108a.616.616 0 0 0-.104-.156c-.011-.013-.016-.03-.028-.043h-.001l-.001-.003-1.821-1.813c-.019-.019-.044-.027-.066-.044a.631.631 0 0 0-.095-.064l-.003-.002a.489.489 0 0 0-.102-.035l-.004-.001a.557.557 0 0 0-.115-.023h-.002l-.026-.001a.587.587 0 0 0-.085.006h.003a.615.615 0 0 0-.118.023.552.552 0 0 0-.107.051c-.023.012-.048.017-.069.033l-2.01 1.5-1.021-1.017 2.719-2.705 4.942 4.861-1.051 1.041zm7.728-7.952c-.018-.003-.034.004-.052.003l-.03-.001a.6.6 0 0 0-.104.009l.004-.001a.575.575 0 0 0-.212.079l.002-.001a.63.63 0 0 0-.094.069c-.015.012-.032.019-.046.033l-5.324 5.832-4.905-4.824 3.211-3.194a.604.604 0 0 0-.428-1.032h-.002l-2.515.015.032-1.822 3.518.03a7.852 7.852 0 0 0 5.642 2.381h.004c.496 0 .979-.052 1.45-.139.045.036.09.073.147.096l2.731 1.088.173.86.202 1.004-3.403-.484zm4.58.202-.355-1.766 1.639-1.224 1.072 1.424-2.357 1.566zm4.254-3.209-.949.89-1.055-1.401.942-.722a.83.83 0 0 1 .616-.162.816.816 0 0 1 .704.804.807.807 0 0 1-.256.591z"/>
      <path fill="var(--color1, #212121)" d="m16.283 18.883-2.429-2.418a.6.6 0 0 0-.852 0l-2.428 2.418a.606.606 0 0 0 0 .856l2.428 2.418a.603.603 0 0 0 .854 0l2.429-2.418a.603.603 0 0 0 0-.856zm-2.855 1.994-1.572-1.565 1.571-1.565 1.572 1.565-1.572 1.565zM20.32 3.613l-.292 1.174c.081.02 1.969.512 1.969 2.435h1.209c0-2.286-1.888-3.36-2.886-3.609zm2.886 4.819h-1.209v1.209h1.209V8.432z"/>
    </symbol>
    <symbol id="feature-clock" viewBox="0 0 32 32">
      <path fill="var(--color1, #212121)" d="M31.296 15.301C31.295 6.849 24.441-.002 15.988 0S.685 6.855.687 15.308c.002 6.788 4.422 12.543 10.541 14.545l.108.031a.667.667 0 0 0 .529-.065.636.636 0 0 0 .283-.357l3.865-12.25a1.913 1.913 0 1 0-.852-3.63l.011-.005-5.106-5.107a.638.638 0 0 0-.902.902l5.103 5.109a1.847 1.847 0 0 0-.191.826c0 .602.283 1.137.723 1.48l.004.003-3.682 11.673C3.843 25.782.117 17.709 2.797 10.431S13.551-.573 20.829 2.108c7.278 2.681 11.004 10.754 8.323 18.032-1.345 3.581-4.003 6.406-7.374 7.938l-.088.036-.398-1.874a.639.639 0 0 0-1.05-.343l.001-.001-3.837 3.426a.637.637 0 0 0 .227 1.083l.005.001 4.899 1.563a.637.637 0 0 0 .818-.744l.001.004-.391-1.839c5.528-2.374 9.329-7.772 9.329-14.057v-.034.002zm-15.304-.637a.638.638 0 0 1 0 1.276.638.638 0 0 1 0-1.276zm2.1 14.864 2.184-1.948.603 2.84-2.787-.892z"/>
      <path fill="var(--color2, #2196f3)" d="M15.354 3.185V4.46a.638.638 0 0 0 1.276 0V3.185a.638.638 0 1 0-1.276 0zM3.876 14.664a.638.638 0 0 0 0 1.276h1.275a.638.638 0 0 0 0-1.276H3.876zm24.232 1.275a.638.638 0 0 0 0-1.276h-1.275a.638.638 0 0 0 0 1.276h1.275z"/>
    </symbol>
    <symbol id="feature-diagram" viewBox="0 0 42 32">
      <path fill="var(--color2, #2196f3)" d="M19.599 14.625h1.39v6.256h-1.39v-6.256zm5.56 2.781h1.39v3.475h-1.39v-3.475zm-11.12 2.085h1.39v1.39h-1.39v-1.39zm-4.171-.696h1.39v2.085h-1.39v-2.085z"/>
      <path fill="var(--color1, #212121)" d="M2.223 32.001h33.363a2.085 2.085 0 0 0 2.085-2.085v-2.78a2.085 2.085 0 0 0-2.085-2.085h-.695V7.717l3.948-3.74a2.097 2.097 0 1 0-.968-.982l-.005-.013-2.974 2.819V4.198a2.085 2.085 0 0 0-2.085-2.085H5.005A2.085 2.085 0 0 0 2.92 4.198V25.05h-.695A2.085 2.085 0 0 0 .14 27.135v2.78C.14 31.066 1.073 32 2.225 32zM39.755 1.419a.695.695 0 1 1 0 1.39.695.695 0 1 1 0-1.39zM4.308 4.199c0-.384.311-.695.695-.695h27.802c.384 0 .695.311.695.695v2.919l-1.39 1.321V5.59a.697.697 0 0 0-.696-.696H6.393a.696.696 0 0 0-.696.695v17.377c0 .384.312.695.696.695h25.021a.696.696 0 0 0 .696-.695V10.351l1.39-1.317V25.05H4.308V4.2zm6.255 9.036h-.006a2.085 2.085 0 1 0 1.45 3.583l-.001.001 2.416 1.212c.281.14.621.075.83-.16l5.136-5.778 5.049 3.783a.696.696 0 0 0 .895-.051l4.388-4.156v10.602H7.089V6.284H30.72v3.469l-4.918 4.657-5.09-3.817a.697.697 0 0 0-.937.093l-5.207 5.859-1.946-.973a1.94 1.94 0 0 0 .026-.252 2.085 2.085 0 0 0-2.085-2.085zm.695 2.085a.695.695 0 1 1-1.39 0 .695.695 0 1 1 1.39 0zm4.171 11.121h6.95v.695a.695.695 0 0 1-.694.695h-5.561a.695.695 0 0 1-.695-.695v-.695zm-13.901.695c0-.384.311-.695.694-.695h11.816v.695c0 1.151.933 2.085 2.085 2.085h5.561a2.085 2.085 0 0 0 2.085-2.085v-.695h11.816c.384 0 .695.311.695.695v2.78a.695.695 0 0 1-.695.695H2.222a.695.695 0 0 1-.695-.695v-2.78z"/>
    </symbol>
    <symbol id="social-facebook" viewBox="0 0 32 32">
      <path d="M21.328 5.312h2.923V.224A36.478 36.478 0 0 0 20.144 0h-.157.008c-4.213 0-7.099 2.65-7.099 7.52V12H8.25v5.688h4.646V32h5.699V17.69h4.459l.709-5.688h-5.17V8.08c0-1.643.443-2.768 2.734-2.768z"/>
    </symbol>
    <symbol id="social-instagram" viewBox="0 0 32 32">
      <path d="M31.968 9.408c-.074-1.701-.349-2.869-.742-3.882a7.839 7.839 0 0 0-1.85-2.837l-.001-.001A7.906 7.906 0 0 0 26.597.861l-.054-.018C25.524.449 24.362.176 22.661.101 20.949.019 20.405 0 16.059 0c-4.344 0-4.888.019-6.595.094-1.699.074-2.869.349-3.88.742a7.847 7.847 0 0 0-2.839 1.85l-.001.001A7.9 7.9 0 0 0 .919 5.465l-.018.054C.506 6.538.232 7.7.157 9.401c-.082 1.712-.101 2.256-.101 6.602 0 4.344.019 4.888.094 6.595.075 1.701.35 2.869.744 3.882a7.915 7.915 0 0 0 1.849 2.837l.001.001c.8.813 1.77 1.443 2.832 1.843 1.019.395 2.182.67 3.882.744 1.707.075 2.251.094 6.595.094 4.346 0 4.89-.019 6.595-.094 1.701-.074 2.869-.349 3.882-.742a8.237 8.237 0 0 0 4.664-4.628l.019-.055c.394-1.019.669-2.182.744-3.882.075-1.707.093-2.251.093-6.595s-.006-4.888-.08-6.595zm-2.88 13.066c-.07 1.563-.333 2.406-.55 2.97a5.341 5.341 0 0 1-3.004 3.024l-.036.012c-.56.219-1.411.482-2.968.55-1.688.075-2.194.094-6.464.094-4.269 0-4.782-.019-6.464-.094-1.563-.069-2.406-.331-2.97-.55a4.953 4.953 0 0 1-1.836-1.192l-.001-.001a4.978 4.978 0 0 1-1.184-1.803L3.6 25.45c-.218-.563-.48-1.413-.549-2.97-.075-1.688-.094-2.195-.094-6.464 0-4.27.019-4.784.094-6.464.069-1.563.331-2.406.549-2.97a4.897 4.897 0 0 1 1.198-1.837l.002-.002a4.972 4.972 0 0 1 1.806-1.182l.034-.011c.56-.219 1.411-.48 2.968-.55 1.688-.074 2.195-.093 6.464-.093 4.275 0 4.782.019 6.464.093 1.563.069 2.406.331 2.97.55a4.91 4.91 0 0 1 1.837 1.194c.531.52.938 1.144 1.195 1.84.218.56.48 1.411.549 2.968.075 1.688.094 2.194.094 6.464 0 4.269-.019 4.768-.094 6.458z"/>
      <path d="M16.059 7.782a8.223 8.223 0 0 0-8.219 8.221 8.223 8.223 0 0 0 16.442.008v-.009a8.223 8.223 0 0 0-8.221-8.221zm0 13.552a5.333 5.333 0 0 1 .001-10.666h.001a5.334 5.334 0 1 1 0 10.668zM26.525 7.458a1.92 1.92 0 0 1-3.84 0 1.92 1.92 0 0 1 3.84 0z"/>
    </symbol>
    <symbol id="social-linkedin" viewBox="0 0 32 32">
      <path d="M31.992 32H32V20.262c0-5.741-1.235-10.163-7.947-10.163-3.227 0-5.392 1.77-6.277 3.45h-.093v-2.914h-6.365v21.363h6.627V21.42c0-2.786.528-5.48 3.978-5.48 3.398 0 3.45 3.179 3.45 5.658V32h6.619zM.528 10.635h6.635V32H.528V10.635zM3.843 0A3.843 3.843 0 0 0 0 3.843c0 2.12 1.722 3.878 3.843 3.878 2.12 0 3.842-1.757 3.842-3.878S5.965.002 3.844 0z"/>
    </symbol>
    <symbol id="social-twitter" viewBox="0 0 32 32">
      <path d="M32 6.078c-1.1.493-2.376.857-3.713 1.028l-.068.007a6.556 6.556 0 0 0 2.873-3.579l.013-.046a12.88 12.88 0 0 1-4.076 1.573l-.084.014A6.558 6.558 0 0 0 15.6 9.557v.004c0 .52.043 1.021.152 1.496-5.454-.266-10.28-2.88-13.522-6.861a6.524 6.524 0 0 0-.902 3.313v.001a6.57 6.57 0 0 0 2.914 5.451 6.453 6.453 0 0 1-2.994-.823l.033.017v.072a6.592 6.592 0 0 0 5.213 6.44l.043.008a6.403 6.403 0 0 1-1.662.215h-.061.003c-.419 0-.843-.024-1.242-.112.85 2.598 3.261 4.509 6.13 4.57a13.093 13.093 0 0 1-8.122 2.8H1.57h.001-.062c-.531 0-1.055-.034-1.569-.099l.061.006c2.826 1.846 6.287 2.944 10.004 2.944h.063-.003c12.072 0 18.672-10 18.672-18.669 0-.288-.01-.57-.024-.848a13.203 13.203 0 0 0 3.258-3.355l.03-.047z"/>
    </symbol>
  </defs>
</svg>
