<svg aria-hidden="true" style="position: absolute; width: 0; height: 0; overflow: hidden;" version="1.1" xmlns="http://www.w3.org/2000/svg" xmlns:xlink="http://www.w3.org/1999/xlink">
<defs>
<symbol id="client-1" viewBox="0 0 28 32">
<path d="M4.128 0.101l4.771 4.517-8.857-0.005v21.915h23.149v-8.379l4.766 4.512v-22.559h-23.83zM22.982 17.618l-13.528-12.807h13.528v12.807zM18.782 23.321h-15.076v-14.738h1.066v13.74h14.011v0.997zM7.266 29.445l-0.557 1.147-0.557-1.147h-0.467l0.813 1.529v0.891h0.422v-0.891l0.811-1.529h-0.465zM7.966 31.866l0.196-0.564h0.938l0.197 0.564h0.439l-0.916-2.42h-0.378l-0.914 2.42h0.437zM8.631 29.959l0.351 1.004h-0.701l0.351-1.004zM10.848 30.905c-0.057 0.085-0.091 0.19-0.091 0.303 0 0.001 0 0.003 0 0.004v-0c0 0.204 0.072 0.37 0.214 0.497s0.336 0.19 0.575 0.19c0.239 0 0.445-0.065 0.618-0.195l0.136 0.161h0.468l-0.355-0.421c0.14-0.191 0.209-0.435 0.209-0.733h-0.351c0 0.163-0.034 0.311-0.101 0.444l-0.468-0.552 0.165-0.12c0.1-0.068 0.184-0.152 0.249-0.249l0.002-0.003c0.048-0.079 0.076-0.174 0.076-0.275 0-0.001 0-0.003-0-0.004v0c0-0.003 0-0.006 0-0.009 0-0.149-0.065-0.283-0.169-0.374l-0.001-0c-0.108-0.097-0.251-0.157-0.408-0.157-0.008 0-0.017 0-0.025 0l0.001-0c-0.195 0-0.35 0.056-0.465 0.166s-0.173 0.259-0.173 0.449c0 0.078 0.018 0.157 0.054 0.241 0.038 0.083 0.104 0.184 0.197 0.302-0.179 0.129-0.3 0.24-0.36 0.334zM11.941 31.44c-0.104 0.084-0.237 0.135-0.382 0.136h-0c-0.006 0-0.013 0-0.020 0-0.104 0-0.199-0.040-0.27-0.106l0 0c-0.067-0.066-0.108-0.157-0.108-0.259 0-0.005 0-0.009 0-0.014l-0 0.001c0-0.129 0.067-0.245 0.2-0.346l0.052-0.037 0.528 0.624zM11.507 30.368c-0.114-0.141-0.172-0.257-0.172-0.351 0-0.081 0.024-0.148 0.070-0.201 0.044-0.049 0.107-0.081 0.178-0.081 0.004 0 0.007 0 0.010 0l-0.001-0c0.003-0 0.006-0 0.009-0 0.067 0 0.127 0.026 0.173 0.068l-0-0c0.048 0.045 0.072 0.099 0.072 0.161 0 0.003 0 0.006 0 0.009 0 0.090-0.040 0.171-0.103 0.226l-0 0-0.052 0.041-0.184 0.127zM15.446 31.683c0.166-0.145 0.261-0.347 0.286-0.605h-0.419c-0.022 0.173-0.075 0.296-0.158 0.37s-0.208 0.112-0.372 0.112c-0.18 0-0.318-0.069-0.412-0.206s-0.14-0.337-0.14-0.599v-0.214c0.003-0.259 0.052-0.453 0.15-0.587 0.099-0.134 0.24-0.201 0.422-0.201 0.157 0 0.276 0.039 0.357 0.116s0.133 0.202 0.153 0.376h0.419c-0.027-0.265-0.121-0.47-0.285-0.615s-0.378-0.218-0.645-0.218c-0.198 0-0.373 0.048-0.525 0.142-0.152 0.097-0.271 0.234-0.345 0.396l-0.002 0.006c-0.077 0.169-0.122 0.367-0.122 0.576 0 0.010 0 0.020 0 0.030l-0-0.001v0.226c0.003 0.223 0.045 0.418 0.125 0.587s0.193 0.298 0.339 0.39c0.148 0.091 0.318 0.136 0.511 0.136 0.276 0 0.497-0.072 0.663-0.216zM17.918 31.344c0.082-0.18 0.123-0.388 0.123-0.625v-0.134c0-0.007 0-0.016 0-0.024 0-0.216-0.047-0.421-0.131-0.605l0.004 0.009c-0.077-0.171-0.199-0.31-0.35-0.406l-0.004-0.002c-0.152-0.095-0.326-0.143-0.524-0.143s-0.372 0.048-0.525 0.144c-0.152 0.095-0.27 0.233-0.354 0.414-0.079 0.175-0.125 0.38-0.125 0.595 0 0.011 0 0.021 0 0.032l-0-0.002v0.136c0.001 0.232 0.043 0.436 0.126 0.613 0.084 0.178 0.203 0.315 0.356 0.411 0.154 0.095 0.329 0.143 0.525 0.143 0.199 0 0.374-0.048 0.526-0.143 0.152-0.097 0.27-0.234 0.352-0.413zM17.468 29.975c0.102 0.143 0.152 0.349 0.152 0.618v0.126c0 0.272-0.050 0.48-0.151 0.622-0.099 0.142-0.242 0.213-0.429 0.213-0.005 0-0.011 0-0.017 0-0.171 0-0.323-0.086-0.413-0.216l-0.001-0.002c-0.104-0.145-0.155-0.351-0.155-0.617v-0.14c0.002-0.26 0.054-0.462 0.156-0.603 0.091-0.13 0.24-0.215 0.409-0.215 0.006 0 0.012 0 0.018 0l-0.001-0c0.187 0 0.33 0.072 0.431 0.214z"></path>
</symbol>
<symbol id="client-2" viewBox="0 0 25 32">
<path d="M10.723 1.806h-0.084c-0.129-0.008-0.258-0.011-0.388-0.014h-0.28c-0.244 0-0.494 0.006-0.741 0.018-0.008-0.001-0.018-0.001-0.028-0.001s-0.020 0-0.030 0.001l0.001-0c-2.376 0.139-4.581 0.733-6.575 1.696l0.104-0.045-0.266 0.128v13.626l0.623-0.212c0.546-0.188 1.129-0.357 1.731-0.513 1.488-0.398 3.202-0.638 4.967-0.661l0.014-0v1.79c-0.223 0.001-0.439 0.007-0.655 0.018h-0.052c-1.399 0.079-2.709 0.289-3.971 0.619l0.139-0.031c-1.734 0.441-3.254 1.050-4.666 1.83l0.1-0.051v-17.475c1.379-0.82 2.974-1.488 4.663-1.921l0.127-0.028c1.353-0.364 2.908-0.576 4.511-0.582h0.267c0.314 0.008 0.622 0.022 0.91 0.044 0.829 0.060 1.597 0.187 2.339 0.378l-0.090-0.020v1.762c-0.628-0.154-1.373-0.271-2.134-0.326l-0.045-0.003-0.044-0.004c-0.152-0.013-0.304-0.026-0.446-0.026zM13.825 3.607c0.391 0.030 0.795 0.044 1.205 0.044 1.689-0.007 3.324-0.228 4.881-0.639l-0.135 0.030c1.734-0.442 3.252-1.052 4.665-1.831l-0.101 0.051v17.163c-1.38 0.819-2.975 1.487-4.665 1.921l-0.127 0.028c-1.353 0.363-2.907 0.574-4.51 0.581h-0.004c-0.033 0-0.072 0-0.111 0-1.177 0-2.319-0.147-3.409-0.425l0.095 0.021v-17.275c0.265 0.062 0.537 0.118 0.814 0.164 0.383 0.068 0.863 0.128 1.35 0.164l0.051 0.003zM22.56 3.74l-0.623 0.209c-0.572 0.193-1.151 0.365-1.731 0.518-1.551 0.415-3.332 0.657-5.169 0.663h-0.004c-0.406 0-0.78-0.011-1.142-0.034l-0.496-0.033v14.017l0.426 0.037c0.395 0.035 0.803 0.052 1.214 0.052 1.45-0.006 2.853-0.198 4.189-0.553l-0.116 0.026c1.221-0.31 2.281-0.702 3.285-1.189l-0.102 0.044 0.266-0.128v-13.63z"></path>
<path d="M1.877 25.977c-0.167-0.173-0.401-0.281-0.661-0.281-0.011 0-0.022 0-0.033 0.001l0.002-0c-0.004-0-0.009-0-0.014-0-0.139 0-0.272 0.028-0.393 0.078l0.007-0.003c-0.237 0.095-0.42 0.28-0.51 0.512l-0.002 0.006c-0.049 0.123-0.074 0.254-0.072 0.386v2.335c-0.006 0.164 0.026 0.328 0.092 0.479 0.055 0.12 0.135 0.226 0.234 0.313 0.093 0.078 0.203 0.135 0.32 0.166 0.114 0.031 0.231 0.048 0.349 0.048 0.13 0.001 0.258-0.026 0.377-0.081 0.351-0.156 0.591-0.5 0.591-0.901v-0.261h-0.61v0.208c0 0.004 0 0.008 0 0.013 0 0.070-0.013 0.137-0.038 0.199l0.001-0.004c-0.021 0.052-0.051 0.095-0.089 0.132l-0 0c-0.070 0.054-0.159 0.088-0.255 0.089h-0c-0.011 0.001-0.023 0.002-0.036 0.002-0.103 0-0.194-0.050-0.25-0.127l-0.001-0.001c-0.051-0.082-0.082-0.182-0.082-0.289 0-0.008 0-0.016 0.001-0.024l-0 0.001v-2.177c-0.004-0.121 0.022-0.24 0.075-0.349 0.056-0.087 0.153-0.143 0.262-0.143 0.013 0 0.025 0.001 0.038 0.002l-0.002-0c0.003-0 0.008-0 0.012-0 0.107 0 0.201 0.052 0.26 0.131l0.001 0.001c0.063 0.082 0.102 0.187 0.102 0.301 0 0.004-0 0.009-0 0.013v-0.001 0.202h0.604v-0.238c0-0.003 0-0.007 0-0.011 0-0.143-0.027-0.28-0.077-0.405l0.003 0.007c-0.048-0.128-0.117-0.237-0.205-0.329l0 0zM5.503 25.951c-0.186-0.158-0.429-0.255-0.694-0.257h-0c-0.124 0-0.248 0.023-0.364 0.066-0.252 0.090-0.451 0.276-0.557 0.511l-0.002 0.006c-0.062 0.142-0.092 0.297-0.089 0.452v2.239c-0.004 0.158 0.026 0.314 0.089 0.458 0.055 0.121 0.135 0.228 0.236 0.313 0.094 0.086 0.203 0.154 0.322 0.197 0.117 0.043 0.24 0.065 0.364 0.066 0.267-0.001 0.51-0.1 0.695-0.264l-0.001 0.001c0.097-0.087 0.176-0.194 0.23-0.313 0.063-0.144 0.093-0.301 0.089-0.458v-2.239c0-0.006 0-0.013 0-0.020 0-0.156-0.033-0.305-0.092-0.439l0.003 0.007c-0.057-0.128-0.135-0.237-0.23-0.327l-0-0zM5.218 28.969c0.001 0.010 0.002 0.023 0.002 0.035 0 0.114-0.047 0.216-0.123 0.289l-0 0c-0.077 0.065-0.178 0.105-0.287 0.105s-0.21-0.040-0.288-0.105l0.001 0.001c-0.076-0.073-0.123-0.175-0.123-0.289 0-0.012 0.001-0.025 0.002-0.037l-0 0.002v-2.239c-0.001-0.010-0.001-0.022-0.001-0.034 0-0.113 0.047-0.216 0.123-0.289l0-0c0.077-0.065 0.178-0.105 0.287-0.105s0.21 0.040 0.288 0.105l-0.001-0.001c0.076 0.073 0.123 0.175 0.123 0.289 0 0.012-0.001 0.025-0.002 0.037l0-0.002v2.24zM10.264 29.969v-4.24h-0.586l-0.771 2.244h-0.010l-0.777-2.244h-0.58v4.239h0.606v-2.578h0.011l0.593 1.823h0.302l0.598-1.823h0.010v2.578h0.606zM13.705 26.027c-0.093-0.105-0.211-0.185-0.342-0.232-0.124-0.042-0.267-0.066-0.416-0.066-0.008 0-0.016 0-0.024 0l0.001-0h-0.9v4.24h0.604v-1.656h0.311c0.188 0.009 0.375-0.031 0.545-0.116 0.139-0.078 0.251-0.188 0.329-0.32l0.002-0.004c0.070-0.113 0.117-0.238 0.138-0.369 0.021-0.133 0.033-0.287 0.033-0.444 0-0.013-0-0.027-0-0.040l0 0.002c0.006-0.203-0.014-0.407-0.059-0.606-0.043-0.153-0.12-0.284-0.223-0.39l0 0zM13.394 27.32c-0.003 0.081-0.023 0.157-0.057 0.224l0.001-0.003c-0.035 0.065-0.089 0.116-0.154 0.147l-0.002 0.001c-0.075 0.034-0.162 0.054-0.254 0.054-0.011 0-0.022-0-0.033-0.001l0.002 0h-0.275v-1.441h0.311c0.009-0 0.019-0.001 0.029-0.001 0.088 0 0.172 0.020 0.247 0.055l-0.004-0.002c0.062 0.036 0.111 0.090 0.141 0.154l0.001 0.002c0.033 0.074 0.051 0.155 0.053 0.236v0.282c0 0.098 0.006 0.201 0 0.291h-0.006zM16.567 25.729h-0.495l-0.934 4.24h0.604l0.177-0.911h0.823l0.178 0.911h0.604l-0.958-4.24zM16.009 28.481l0.297-1.537h0.011l0.295 1.537h-0.604zM20.469 28.283h-0.011l-0.912-2.554h-0.581v4.24h0.604v-2.55h0.012l0.923 2.549h0.568v-4.239h-0.604v2.554zM24.16 25.729l-0.486 1.686h-0.012l-0.486-1.686h-0.639l0.83 2.448v1.791h0.604v-1.791l0.83-2.447h-0.64zM0.192 31.166h0.291v0.817h0.198v-0.817h0.289v-0.167h-0.778v0.168zM2.64 30.998l-0.382 0.985h0.21l0.081-0.224h0.392l0.084 0.224h0.215l-0.391-0.985h-0.21zM2.609 31.593l0.134-0.365 0.134 0.365h-0.268zM5.059 31.62h0.228v0.127c-0.063 0.051-0.145 0.082-0.234 0.083h-0c-0.004 0-0.009 0-0.014 0-0.079 0-0.149-0.037-0.195-0.094l-0-0c-0.046-0.065-0.073-0.147-0.073-0.234 0-0.008 0-0.016 0.001-0.023l-0 0.001c0-0.219 0.095-0.329 0.283-0.329 0.006-0.001 0.014-0.001 0.021-0.001 0.097 0 0.178 0.067 0.201 0.157l0 0.001 0.194-0.038c-0.042-0.192-0.18-0.289-0.417-0.289-0.004-0-0.008-0-0.013-0-0.127 0-0.244 0.048-0.331 0.127l0-0c-0.088 0.087-0.143 0.208-0.143 0.342 0 0.013 0 0.026 0.002 0.038l-0-0.002c-0 0.007-0 0.015-0 0.023 0 0.132 0.048 0.254 0.127 0.347l-0.001-0.001c0.087 0.090 0.209 0.146 0.343 0.146 0.011 0 0.021-0 0.032-0.001l-0.001 0c0.005 0 0.010 0 0.016 0 0.155 0 0.296-0.060 0.402-0.157l-0 0v-0.388h-0.426v0.166zM7.529 30.998h-0.198v0.985h0.689v-0.167h-0.49v-0.817zM9.619 30.998h-0.199v0.985h0.199v-0.985zM11.661 31.656l-0.403-0.657h-0.193v0.985h0.185v-0.643l0.396 0.643h0.198v-0.985h-0.182v0.658zM13.507 31.549h0.49v-0.167h-0.49v-0.215h0.527v-0.168h-0.727v0.985h0.747v-0.167h-0.548v-0.266zM17.984 31.387h-0.388v-0.388h-0.197v0.984h0.197v-0.431h0.388v0.431h0.198v-0.985h-0.198v0.388zM19.842 31.549h0.492v-0.167h-0.492v-0.215h0.529v-0.168h-0.726v0.985h0.746v-0.167h-0.548v-0.266zM22.36 31.55c0.171-0.027 0.258-0.118 0.258-0.274 0.001-0.008 0.002-0.018 0.002-0.028 0-0.079-0.038-0.148-0.098-0.191l-0.001-0c-0.073-0.037-0.159-0.059-0.25-0.059-0.014 0-0.027 0-0.040 0.001l0.002-0h-0.417v0.984h0.198v-0.412h0.039c0.005-0 0.010-0 0.016-0 0.039 0 0.076 0.008 0.109 0.023l-0.002-0.001c0.029 0.018 0.053 0.042 0.070 0.072l0.215 0.313h0.236l-0.12-0.192c-0.054-0.096-0.128-0.175-0.215-0.235l-0.002-0.002zM22.161 31.413h-0.146v-0.247h0.156c0.012-0.001 0.027-0.002 0.042-0.002 0.057 0 0.111 0.009 0.163 0.026l-0.004-0.001c0.026 0.024 0.043 0.058 0.043 0.096 0 0.042-0.020 0.080-0.052 0.104l-0 0c-0.049 0.016-0.106 0.025-0.164 0.025-0.013 0-0.026-0-0.039-0.001l0.002 0zM24.26 31.549h0.49v-0.167h-0.49v-0.215h0.529v-0.168h-0.729v0.985h0.747v-0.167h-0.548v-0.266z"></path>
</symbol>
<symbol id="client-3" viewBox="0 0 34 32">
<path d="M5.341 31.393c0.012 0 0.025 0.003 0.036 0.008s0.022 0.011 0.030 0.019l-0-0 0.169 0.162c-0.132 0.131-0.294 0.236-0.477 0.308-0.188 0.070-0.405 0.111-0.632 0.111-0.015 0-0.031-0-0.046-0.001l0.002 0c-0.218 0.004-0.434-0.031-0.635-0.103-0.186-0.067-0.345-0.166-0.48-0.291l0.001 0.001c-0.131-0.124-0.235-0.273-0.306-0.441l-0.003-0.009c-0.069-0.166-0.109-0.359-0.109-0.561 0-0.006 0-0.011 0-0.017v0.001c-0-0.009-0-0.019-0-0.030 0-0.396 0.172-0.751 0.444-0.997l0.001-0.001c0.145-0.127 0.318-0.226 0.508-0.293 0.209-0.070 0.431-0.105 0.655-0.103 0.012-0 0.026-0 0.040-0 0.203 0 0.398 0.034 0.58 0.097l-0.012-0.004c0.168 0.064 0.322 0.152 0.456 0.26l-0.142 0.172c-0.010 0.012-0.022 0.023-0.035 0.031l-0.001 0c-0.014 0.009-0.031 0.014-0.049 0.014-0.003 0-0.006-0-0.008-0l0 0c-0.023-0.001-0.044-0.008-0.063-0.018l0.001 0-0.075-0.047-0.106-0.059c-0.097-0.047-0.209-0.083-0.327-0.102l-0.007-0.001c-0.070-0.012-0.152-0.019-0.234-0.019-0.006 0-0.013 0-0.019 0h0.001c-0.005-0-0.010-0-0.016-0-0.163 0-0.319 0.029-0.464 0.081l0.010-0.003c-0.143 0.050-0.266 0.124-0.37 0.218l0.001-0.001c-0.105 0.099-0.186 0.218-0.239 0.346-0.055 0.13-0.086 0.281-0.086 0.44 0 0.006 0 0.011 0 0.017v-0.001c-0 0.006-0 0.012-0 0.019 0 0.16 0.032 0.313 0.089 0.453l-0.003-0.008c0.052 0.127 0.132 0.244 0.235 0.344 0.097 0.093 0.218 0.167 0.352 0.214 0.138 0.050 0.287 0.075 0.436 0.074 0.087 0.001 0.173-0.004 0.259-0.015 0.216-0.022 0.408-0.108 0.561-0.239l-0.001 0.001c0.022-0.018 0.050-0.029 0.080-0.030h0zM10.235 30.58c0 0.005 0 0.011 0 0.017 0 0.201-0.042 0.392-0.118 0.564l0.004-0.009c-0.075 0.175-0.183 0.324-0.317 0.443l-0.001 0.001c-0.141 0.125-0.307 0.224-0.491 0.288l-0.010 0.003c-0.192 0.065-0.414 0.103-0.644 0.103s-0.452-0.038-0.659-0.107l0.015 0.004c-0.192-0.068-0.358-0.168-0.499-0.294l0.001 0.001c-0.136-0.123-0.245-0.272-0.319-0.441l-0.003-0.008c-0.072-0.169-0.114-0.366-0.114-0.573s0.042-0.404 0.118-0.583l-0.004 0.010c0.072-0.168 0.182-0.321 0.322-0.451 0.141-0.124 0.311-0.219 0.497-0.282 0.192-0.067 0.414-0.105 0.644-0.105s0.452 0.038 0.658 0.109l-0.014-0.004c0.188 0.066 0.358 0.166 0.5 0.292 0.14 0.128 0.249 0.28 0.32 0.444 0.078 0.185 0.117 0.38 0.114 0.577zM9.79 30.58c0-0.007 0-0.016 0-0.024 0-0.157-0.030-0.307-0.084-0.445l0.003 0.008c-0.103-0.265-0.314-0.469-0.578-0.559l-0.007-0.002c-0.14-0.048-0.301-0.075-0.468-0.075s-0.328 0.028-0.479 0.079l0.011-0.003c-0.139 0.050-0.259 0.124-0.359 0.218l0-0c-0.099 0.094-0.177 0.209-0.226 0.338l-0.002 0.006c-0.051 0.137-0.081 0.295-0.081 0.46s0.030 0.323 0.084 0.469l-0.003-0.009c0.103 0.266 0.315 0.469 0.58 0.558l0.007 0.002c0.301 0.099 0.634 0.099 0.936 0 0.136-0.047 0.259-0.121 0.357-0.215 0.102-0.1 0.179-0.218 0.227-0.344 0.057-0.148 0.084-0.304 0.081-0.46zM13.574 31.062l0.045 0.103c0.016-0.037 0.031-0.070 0.048-0.103 0.016-0.035 0.035-0.068 0.055-0.101l1.082-1.71c0.022-0.030 0.040-0.048 0.062-0.054s0.048-0.010 0.074-0.010c0.005 0 0.010 0 0.015 0l-0.001-0h0.32v2.782h-0.379v-2.131c-0.001-0.014-0.002-0.031-0.002-0.048s0.001-0.034 0.002-0.050l-0 0.002-1.090 1.734c-0.015 0.027-0.037 0.048-0.063 0.063l-0.001 0c-0.026 0.015-0.058 0.023-0.091 0.023-0.001 0-0.001 0-0.002 0h-0.061c-0.001 0-0.002 0-0.002 0-0.033 0-0.065-0.009-0.092-0.024l0.001 0c-0.027-0.015-0.048-0.036-0.063-0.062l-0-0.001-1.121-1.745v2.232h-0.366v-2.776h0.319c0.004-0 0.010-0 0.015-0 0.027 0 0.052 0.004 0.076 0.010l-0.002-0c0.026 0.012 0.047 0.030 0.059 0.054l1.106 1.712c0.022 0.031 0.040 0.064 0.055 0.099zM17.648 30.924v1.041h-0.423v-2.777h0.945c0.179-0.003 0.357 0.018 0.528 0.061 0.137 0.034 0.264 0.093 0.373 0.173 0.090 0.072 0.162 0.163 0.21 0.267l0.002 0.005c0.051 0.113 0.075 0.235 0.072 0.356 0 0.005 0 0.011 0 0.018 0 0.251-0.12 0.474-0.305 0.614l-0.002 0.001c-0.109 0.083-0.236 0.146-0.375 0.183-0.143 0.041-0.307 0.065-0.477 0.065-0.012 0-0.024-0-0.035-0l-0.511-0.008zM17.648 30.626h0.513c0.111 0.002 0.222-0.013 0.329-0.042 0.091-0.027 0.17-0.068 0.239-0.121l-0.002 0.001c0.119-0.099 0.194-0.247 0.194-0.412 0-0.002 0-0.004-0-0.006v0c0.001-0.009 0.001-0.019 0.001-0.030 0-0.071-0.016-0.139-0.044-0.199l0.001 0.003c-0.036-0.075-0.086-0.139-0.147-0.189l-0.001-0.001c-0.142-0.095-0.316-0.152-0.503-0.152-0.024 0-0.047 0.001-0.070 0.003l0.003-0h-0.513v1.145zM23.343 31.969h-0.334c-0.002 0-0.004 0-0.006 0-0.032 0-0.062-0.010-0.087-0.026l0.001 0c-0.024-0.017-0.043-0.038-0.055-0.064l-0-0.001-0.288-0.671h-1.448l-0.298 0.671c-0.012 0.026-0.030 0.047-0.052 0.062l-0 0c-0.025 0.018-0.057 0.028-0.090 0.028-0.002 0-0.004-0-0.006-0h-0.334l1.27-2.782h0.441l1.288 2.782zM21.245 30.936h1.196l-0.505-1.132c-0.038-0.085-0.070-0.172-0.095-0.261l-0.049 0.145c-0.017 0.049-0.032 0.088-0.050 0.126l0.003-0.008-0.5 1.13zM25.173 29.201c0.025 0.012 0.047 0.029 0.064 0.049l1.853 2.097v-2.159h0.379v2.782h-0.211c-0.001 0-0.003 0-0.005 0-0.030 0-0.058-0.006-0.084-0.018l0.001 0c-0.026-0.013-0.049-0.031-0.067-0.051l-0-0-1.852-2.095c0.001 0.014 0.002 0.031 0.002 0.048s-0.001 0.034-0.002 0.050l0-0.002v2.067h-0.379v-2.782h0.225c0.026 0 0.052 0.005 0.076 0.013zM30.593 30.863v1.104h-0.424v-1.103l-1.172-1.675h0.379c0.003-0 0.006-0 0.009-0 0.030 0 0.058 0.009 0.082 0.024l-0.001-0c0.023 0.019 0.043 0.040 0.058 0.063l0.733 1.081c0.050 0.071 0.094 0.152 0.126 0.239l0.003 0.008 0.056-0.12c0.020-0.044 0.044-0.085 0.072-0.127l0.723-1.088c0.016-0.022 0.034-0.042 0.054-0.059l0-0c0.023-0.017 0.052-0.027 0.084-0.027 0.003 0 0.006 0 0.008 0l-0-0h0.384l-1.173 1.682zM13.364 24.52c0.185 0.020 0.371 0.037 0.559 0.051 2.86-1.111 5.277-2.929 6.953-5.228s2.534-4.975 2.469-7.696l-3.15-2.737c0.64 2.896 0.34 5.89-0.866 8.647s-3.271 5.167-5.965 6.962z"></path>
<path d="M12.24 24.393l0.085 0.016c2.878-1.79 5.072-4.287 6.299-7.171s1.43-6.021 0.583-9.006l-4.487-3.898c1.814 3.205 2.546 6.791 2.106 10.342-0.438 3.551-2.028 6.92-4.585 9.717zM27.457 14.862c-0.762 2.989-2.614 5.685-5.279 7.687-0.728 0.554-1.55 1.073-2.415 1.52l-0.094 0.044c2.171-0.554 4.166-1.534 5.832-2.864s2.958-2.975 3.776-4.808l-1.82-1.58z"></path>
<path d="M26.743 14.422l-2.591-2.251c-0.050 2.567-0.89 5.075-2.432 7.264s-3.733 3.98-6.341 5.185h0.012c0.581 0 1.162-0.031 1.739-0.090 2.438-0.865 4.592-2.24 6.268-4.004s2.826-3.86 3.344-6.104zM12.614 2.689l-3.091-2.689c-2.763 0.928-5.139 2.559-6.819 4.679s-2.581 4.633-2.59 7.206c0.010 2.844 1.112 5.604 3.131 7.843 2.018 2.238 4.839 3.828 8.014 4.518 2.835-3.001 4.495-6.709 4.738-10.586s-0.943-7.72-3.385-10.972zM33.885 14.008c-0.011-3.374-1.559-6.607-4.305-8.993s-6.468-3.731-10.352-3.741c-0.009 0-0.019-0-0.029-0-1.867 0-3.662 0.311-5.335 0.884l0.116-0.034 18.925 16.442c0.617-1.339 0.977-2.906 0.979-4.557v-0.001z"></path>
</symbol>
<symbol id="client-4" viewBox="0 0 54 32">
<path d="M10.326 9.788h-0.002c-1.883 0-3.41 1.356-3.41 3.031v0.002c0 1.674 1.527 3.031 3.41 3.031h0.002c1.883 0 3.41-1.357 3.41-3.031v-0.002c0-1.674-1.527-3.032-3.41-3.032zM35.498 8.82c-0.006-2.325-1.047-4.554-2.897-6.198s-4.357-2.57-6.973-2.575c-2.617 0.004-5.126 0.93-6.976 2.574-1.851 1.645-2.893 3.873-2.898 6.199v12.821s19.741-1.954 19.744-12.819v-0.002zM0 25.848c0.005 1.618 0.731 3.168 2.017 4.312s3.031 1.789 4.851 1.793c1.82-0.005 3.564-0.649 4.851-1.793s2.012-2.693 2.017-4.311v-8.921s-13.736 1.361-13.736 8.919zM6.868 27.446c-0.356 0-0.703-0.094-0.999-0.269-0.287-0.169-0.515-0.414-0.658-0.707l-0.004-0.010c-0.086-0.179-0.137-0.389-0.137-0.61 0-0.111 0.013-0.218 0.036-0.322l-0.002 0.010c0.069-0.31 0.24-0.595 0.492-0.819 0.251-0.22 0.564-0.375 0.909-0.436l0.011-0.002c0.106-0.020 0.227-0.031 0.352-0.031 0.247 0 0.483 0.045 0.702 0.126l-0.014-0.005c0.329 0.121 0.61 0.326 0.807 0.589s0.303 0.572 0.303 0.887c0.001 0.21-0.045 0.42-0.135 0.614-0.097 0.204-0.228 0.377-0.388 0.519l-0.002 0.001c-0.167 0.149-0.365 0.267-0.584 0.348-0.205 0.078-0.441 0.123-0.688 0.123-0 0-0.001 0-0.001 0h0v-0.006zM19.424 24.584v3.351h-0.69v-3.351h0.691zM20.759 26.016v0.538h-1.524v-0.538h1.524zM20.92 24.584v0.541h-1.684v-0.541h1.685zM24.073 26.182v0.159c0 0.254-0.035 0.483-0.104 0.686-0.066 0.2-0.166 0.372-0.294 0.52l0.002-0.002c-0.126 0.141-0.276 0.249-0.451 0.324-0.173 0.076-0.366 0.113-0.577 0.113s-0.403-0.038-0.578-0.113c-0.178-0.078-0.328-0.188-0.45-0.323l-0.001-0.001c-0.128-0.146-0.229-0.318-0.294-0.508l-0.003-0.011c-0.066-0.196-0.104-0.421-0.104-0.655 0-0.011 0-0.021 0-0.031v0.002-0.16c0-0.256 0.035-0.485 0.104-0.686s0.166-0.375 0.292-0.518c0.123-0.138 0.273-0.249 0.443-0.323l0.008-0.003c0.175-0.076 0.368-0.112 0.578-0.112 0.212 0 0.404 0.037 0.577 0.112 0.175 0.076 0.325 0.185 0.451 0.327 0.127 0.143 0.225 0.316 0.294 0.518 0.071 0.2 0.106 0.429 0.106 0.686zM23.375 26.341v-0.163c0-0.178-0.016-0.335-0.048-0.47-0.029-0.129-0.078-0.243-0.145-0.345l0.002 0.004c-0.058-0.087-0.136-0.157-0.227-0.205l-0.003-0.002c-0.087-0.045-0.19-0.072-0.298-0.072-0.004 0-0.008 0-0.012 0h0.001c-0.117 0-0.22 0.024-0.311 0.071-0.093 0.050-0.17 0.12-0.226 0.205l-0.001 0.002c-0.063 0.098-0.111 0.212-0.139 0.334l-0.001 0.007c-0.031 0.133-0.049 0.286-0.049 0.444 0 0.009 0 0.019 0 0.028v-0.001 0.163c0 0.176 0.016 0.332 0.049 0.469 0.032 0.135 0.079 0.25 0.142 0.343 0.059 0.088 0.136 0.158 0.227 0.207l0.003 0.002c0.090 0.048 0.194 0.072 0.311 0.072s0.22-0.024 0.31-0.071c0.094-0.051 0.17-0.122 0.226-0.207l0.001-0.002c0.063-0.099 0.112-0.213 0.139-0.336l0.001-0.007c0.032-0.137 0.048-0.293 0.048-0.469zM26.314 27.059c0-0.002 0-0.004 0-0.007 0-0.055-0.010-0.108-0.029-0.157l0.001 0.003c-0.020-0.054-0.054-0.099-0.097-0.133l-0.001-0c-0.058-0.048-0.123-0.089-0.194-0.12l-0.005-0.002c-0.089-0.042-0.2-0.084-0.314-0.119l-0.020-0.005c-0.177-0.057-0.32-0.113-0.459-0.176l0.027 0.011c-0.137-0.062-0.255-0.134-0.363-0.217l0.004 0.003c-0.099-0.079-0.18-0.174-0.241-0.282l-0.002-0.005c-0.056-0.106-0.088-0.231-0.088-0.364 0-0.006 0-0.012 0-0.018v0.001c-0-0.003-0-0.007-0-0.011 0-0.135 0.034-0.262 0.094-0.373l-0.002 0.004c0.061-0.116 0.148-0.214 0.257-0.294 0.111-0.083 0.241-0.147 0.391-0.191 0.152-0.045 0.319-0.067 0.5-0.067 0.247 0 0.463 0.044 0.646 0.134s0.327 0.21 0.428 0.365c0.103 0.155 0.155 0.332 0.155 0.532h-0.686c0-0.003 0-0.007 0-0.010 0-0.091-0.023-0.176-0.064-0.25l0.001 0.003c-0.042-0.077-0.105-0.137-0.181-0.176l-0.002-0.001c-0.084-0.042-0.182-0.066-0.286-0.066-0.008 0-0.016 0-0.024 0l0.001-0c-0.007-0-0.015-0-0.023-0-0.099 0-0.194 0.020-0.28 0.057l0.005-0.002c-0.075 0.031-0.136 0.081-0.179 0.144l-0.001 0.001c-0.038 0.056-0.060 0.124-0.060 0.198 0 0.002 0 0.003 0 0.005v-0c0 0.057 0.014 0.108 0.042 0.154 0.035 0.051 0.078 0.094 0.127 0.128l0.002 0.001c0.057 0.040 0.126 0.079 0.209 0.113s0.179 0.070 0.288 0.104c0.182 0.055 0.342 0.118 0.481 0.186 0.14 0.069 0.256 0.147 0.35 0.232s0.165 0.183 0.212 0.292 0.071 0.232 0.071 0.371c0 0.010 0.001 0.021 0.001 0.032 0 0.267-0.13 0.503-0.33 0.649l-0.002 0.002c-0.107 0.080-0.235 0.141-0.384 0.181-0.144 0.040-0.309 0.063-0.48 0.063-0.007 0-0.013-0-0.020-0h0.001c-0 0-0 0-0.001 0-0.174 0-0.343-0.024-0.503-0.068l0.013 0.003c-0.167-0.046-0.314-0.115-0.445-0.204l0.005 0.003c-0.129-0.089-0.234-0.203-0.31-0.336l-0.003-0.005c-0.079-0.138-0.118-0.301-0.118-0.49h0.693c0 0.105 0.016 0.192 0.049 0.265 0.031 0.071 0.077 0.13 0.134 0.174l0.001 0.001c0.060 0.044 0.131 0.078 0.208 0.096l0.004 0.001c0.083 0.020 0.173 0.030 0.272 0.030 0.007 0 0.016 0 0.024 0 0.098 0 0.19-0.019 0.275-0.053l-0.005 0.002c0.136-0.055 0.23-0.185 0.23-0.338 0-0.002 0-0.003-0-0.005v0zM28.971 24.584v3.351h-0.687v-3.351h0.687zM30.003 24.584v0.541h-2.733v-0.541h2.733zM32.644 27.397v0.539h-1.783v-0.539h1.783zM31.086 24.584v3.351h-0.691v-3.351h0.691zM32.412 25.95v0.525h-1.55v-0.525h1.55zM32.642 24.584v0.541h-1.781v-0.541h1.781zM33.047 24.584h1.249c0.257 0 0.477 0.039 0.661 0.116s0.327 0.19 0.427 0.34c0.1 0.151 0.149 0.335 0.149 0.554 0 0.18-0.030 0.334-0.091 0.463-0.061 0.128-0.148 0.235-0.254 0.318l-0.002 0.001c-0.11 0.084-0.237 0.153-0.375 0.199l-0.009 0.003-0.218 0.116h-1.086l-0.005-0.539h0.808c0.007 0 0.015 0 0.022 0 0.102 0 0.197-0.024 0.282-0.067l-0.004 0.002c0.077-0.041 0.139-0.102 0.179-0.177l0.001-0.002c0.039-0.074 0.062-0.162 0.062-0.255 0-0.004-0-0.009-0-0.013v0.001c0-0.005 0-0.011 0-0.016 0-0.096-0.022-0.186-0.062-0.266l0.002 0.004c-0.041-0.078-0.103-0.14-0.18-0.178l-0.002-0.001c-0.083-0.040-0.181-0.063-0.284-0.063-0.008 0-0.016 0-0.023 0h-0.557v2.81h-0.691v-3.351zM34.92 27.935l-0.764-1.493 0.73-0.005 0.773 1.466v0.032h-0.738zM38.544 26.742h-0.854v-0.54h0.854c0.008 0 0.018 0.001 0.028 0.001 0.107 0 0.208-0.024 0.298-0.067l-0.004 0.002c0.079-0.041 0.142-0.105 0.181-0.182l0.001-0.002c0.036-0.080 0.057-0.173 0.057-0.271s-0.021-0.191-0.059-0.276l0.002 0.004c-0.040-0.087-0.102-0.158-0.18-0.206l-0.002-0.001c-0.085-0.050-0.188-0.079-0.297-0.079-0.009 0-0.018 0-0.026 0.001l0.001-0h-0.614v2.81h-0.691v-3.351h1.305c0.262 0 0.487 0.047 0.674 0.143 0.188 0.094 0.333 0.223 0.433 0.389s0.149 0.355 0.149 0.569c0 0.216-0.050 0.403-0.149 0.562-0.1 0.157-0.243 0.279-0.432 0.365s-0.413 0.129-0.675 0.129zM42.525 27.397v0.539h-1.783v-0.539h1.783zM40.968 24.584v3.351h-0.69v-3.351h0.69zM42.293 25.95v0.525h-1.55v-0.525h1.55zM42.523 24.584v0.541h-1.781v-0.541h1.781zM44.472 24.584v3.351h-0.688v-3.351h0.688zM45.502 24.584v0.541h-2.733v-0.541h2.733zM48.145 27.397v0.539h-1.783v-0.539h1.783zM46.586 24.584v3.351h-0.69v-3.351h0.691zM47.912 25.95v0.525h-1.551v-0.525h1.551zM48.143 24.585v0.541h-1.782v-0.541h1.782zM48.547 24.585h1.25c0.256 0 0.477 0.039 0.66 0.116 0.186 0.076 0.329 0.19 0.429 0.34s0.149 0.335 0.149 0.554c0 0.18-0.031 0.334-0.092 0.463-0.061 0.128-0.147 0.235-0.253 0.318l-0.002 0.001c-0.11 0.084-0.238 0.153-0.376 0.199l-0.009 0.003-0.218 0.116h-1.086l-0.004-0.539h0.807c0.007 0 0.015 0 0.023 0 0.102 0 0.197-0.024 0.282-0.067l-0.004 0.002c0.077-0.041 0.138-0.102 0.178-0.177l0.001-0.002c0.040-0.074 0.063-0.163 0.063-0.256 0-0.004-0-0.008-0-0.011v0.001c0-0.004 0-0.010 0-0.015 0-0.096-0.022-0.187-0.062-0.268l0.002 0.004c-0.040-0.078-0.103-0.14-0.179-0.178l-0.002-0.001c-0.083-0.040-0.181-0.063-0.284-0.063-0.008 0-0.016 0-0.023 0h-0.558v2.81h-0.69v-3.352zM50.42 27.936l-0.764-1.493 0.731-0.005 0.772 1.466v0.032h-0.738zM53.311 27.060c0-0.002 0-0.004 0-0.007 0-0.055-0.010-0.108-0.029-0.157l0.001 0.003c-0.020-0.054-0.054-0.099-0.096-0.133l-0.001-0c-0.058-0.048-0.124-0.089-0.195-0.12l-0.006-0.002c-0.089-0.042-0.2-0.084-0.314-0.119l-0.020-0.005c-0.176-0.057-0.319-0.113-0.459-0.176l0.027 0.011c-0.137-0.062-0.255-0.134-0.364-0.217l0.004 0.003c-0.099-0.079-0.18-0.174-0.241-0.282l-0.002-0.005c-0.056-0.106-0.088-0.231-0.088-0.364 0-0.006 0-0.012 0-0.018v0.001c-0-0.003-0-0.007-0-0.011 0-0.135 0.034-0.262 0.094-0.373l-0.002 0.004c0.062-0.116 0.148-0.214 0.258-0.294 0.11-0.083 0.24-0.147 0.391-0.191s0.318-0.067 0.499-0.067c0.247 0 0.464 0.044 0.646 0.134 0.185 0.089 0.327 0.21 0.428 0.365 0.103 0.155 0.155 0.332 0.155 0.532h-0.686c0-0.003 0-0.007 0-0.010 0-0.091-0.023-0.176-0.064-0.25l0.001 0.003c-0.042-0.077-0.105-0.137-0.181-0.176l-0.002-0.001c-0.084-0.041-0.182-0.066-0.286-0.066-0.008 0-0.016 0-0.023 0h0.001c-0.007-0-0.015-0-0.024-0-0.1 0-0.194 0.020-0.28 0.057l0.005-0.002c-0.075 0.031-0.136 0.081-0.179 0.144l-0.001 0.001c-0.038 0.056-0.060 0.124-0.060 0.198 0 0.002 0 0.003 0 0.005v-0c0 0.057 0.014 0.108 0.042 0.154 0.035 0.051 0.078 0.094 0.127 0.128l0.002 0.001c0.057 0.040 0.127 0.079 0.21 0.113s0.178 0.070 0.287 0.104c0.182 0.055 0.342 0.118 0.481 0.186 0.14 0.069 0.256 0.147 0.35 0.232s0.165 0.183 0.212 0.292 0.071 0.232 0.071 0.371c0 0.145-0.028 0.276-0.085 0.391s-0.139 0.212-0.246 0.292c-0.108 0.080-0.236 0.141-0.385 0.181s-0.314 0.063-0.499 0.063c-0.166 0-0.33-0.022-0.49-0.065-0.167-0.046-0.314-0.115-0.445-0.204l0.005 0.003c-0.129-0.089-0.234-0.203-0.31-0.336l-0.003-0.005c-0.079-0.138-0.118-0.301-0.118-0.49h0.693c0 0.105 0.016 0.192 0.049 0.265 0.031 0.071 0.077 0.13 0.134 0.174l0.001 0.001c0.060 0.044 0.131 0.078 0.208 0.096l0.004 0.001c0.083 0.020 0.173 0.030 0.272 0.030 0.007 0 0.016 0 0.024 0 0.097 0 0.19-0.019 0.275-0.053l-0.005 0.002c0.136-0.055 0.23-0.185 0.23-0.338 0-0.002 0-0.003-0-0.005v0z"></path>
</symbol>
<symbol id="client-5" viewBox="0 0 44 32">
<path d="M3.344 26.732c0.172 0.194 0.263 0.438 0.258 0.687 0.001 0.016 0.001 0.034 0.001 0.052 0 0.154-0.035 0.299-0.096 0.43l0.003-0.006c-0.074 0.157-0.178 0.288-0.306 0.391l-0.002 0.002c-0.291 0.201-0.652 0.321-1.040 0.321-0.043 0-0.085-0.001-0.127-0.004l0.006 0h-2.043v-4.356h2.001c0.035-0.002 0.077-0.004 0.118-0.004 0.368 0 0.711 0.109 0.998 0.297l-0.007-0.004c0.13 0.1 0.232 0.225 0.299 0.366 0.068 0.142 0.098 0.296 0.089 0.45 0.011 0.239-0.070 0.476-0.232 0.666-0.156 0.173-0.37 0.293-0.609 0.341 0.271 0.045 0.516 0.177 0.69 0.373zM0.947 26.075h0.856c0.194 0.013 0.387-0.039 0.544-0.145 0.062-0.052 0.112-0.116 0.144-0.19l0.001-0.003c0.025-0.056 0.040-0.122 0.040-0.191 0-0.015-0.001-0.029-0.002-0.043l0 0.002c0.001-0.011 0.001-0.024 0.001-0.037 0-0.070-0.015-0.137-0.041-0.198l0.001 0.003c-0.034-0.077-0.082-0.142-0.142-0.194l-0.001-0.001c-0.138-0.094-0.309-0.15-0.492-0.15-0.024 0-0.048 0.001-0.071 0.003l0.003-0h-0.842v1.143zM2.43 27.745c0.067-0.053 0.12-0.12 0.156-0.197l0.001-0.003c0.029-0.061 0.046-0.133 0.046-0.208 0-0.012-0-0.024-0.001-0.036l0 0.002c0.001-0.010 0.001-0.021 0.001-0.032 0-0.078-0.018-0.152-0.049-0.218l0.001 0.003c-0.038-0.080-0.093-0.148-0.159-0.2l-0.001-0.001c-0.147-0.1-0.329-0.159-0.524-0.159-0.020 0-0.040 0.001-0.060 0.002l0.003-0h-0.897v1.198h0.909c0.204 0.011 0.407-0.042 0.574-0.151zM7.434 28.605l-1.112-1.703h-0.419v1.703h-0.958v-4.356h1.813c0.039-0.003 0.084-0.004 0.129-0.004 0.427 0 0.82 0.141 1.137 0.378l-0.005-0.004c0.253 0.236 0.407 0.548 0.431 0.878 0.002 0.027 0.003 0.059 0.003 0.092 0 0.318-0.113 0.609-0.301 0.835l0.002-0.002c-0.225 0.232-0.523 0.391-0.857 0.442l-0.008 0.001 1.186 1.741h-1.041zM5.903 26.308h0.783c0.544 0 0.816-0.22 0.816-0.659 0.001-0.010 0.001-0.023 0.001-0.035 0-0.083-0.017-0.161-0.047-0.233l0.001 0.004c-0.037-0.089-0.090-0.164-0.155-0.226l-0-0c-0.149-0.112-0.337-0.18-0.54-0.18-0.027 0-0.053 0.001-0.079 0.003l0.003-0h-0.792l0.009 1.326zM12.669 27.728h-1.908l-0.337 0.878h-1.004l1.752-4.308h1.086l1.746 4.308h-1.003l-0.33-0.877zM12.414 27.068l-0.697-1.839-0.697 1.839h1.395zM19.222 28.605h-0.95l-2.132-2.962v2.962h-0.949v-4.357h0.949l2.132 2.98v-2.98h0.95v4.357zM24.648 27.562c-0.197 0.329-0.496 0.597-0.861 0.768-0.37 0.174-0.803 0.275-1.259 0.275-0.027 0-0.054-0-0.082-0.001l0.004 0h-1.692v-4.356h1.692c0.024-0.001 0.052-0.001 0.080-0.001 0.455 0 0.888 0.099 1.277 0.276l-0.019-0.008c0.364 0.169 0.663 0.433 0.86 0.76 0.196 0.355 0.298 0.746 0.298 1.143s-0.102 0.788-0.298 1.143zM23.56 27.458c0.258-0.27 0.418-0.636 0.42-1.040v-0c0-0.381-0.149-0.75-0.42-1.039-0.295-0.233-0.672-0.374-1.082-0.374-0.038 0-0.076 0.001-0.114 0.004l0.005-0h-0.66v2.82h0.66c0.033 0.002 0.071 0.003 0.109 0.003 0.41 0 0.787-0.141 1.085-0.376l-0.004 0.003zM13.265 0.015s12.271 4.242 12.011 10.38v10.382s-12.262-4.243-12.007-10.382l-0.004-10.38zM36.207 18.346c2.318-1.46 4.998-2.364 7.797-2.63v-3.251c-3.224 1.139-5.96 3.202-7.797 5.881z"></path>
<path d="M34.815 19.326c1.896-3.497 5.185-6.196 9.188-7.541v-9.365s-17.476 6.042-17.106 14.783v14.781s0.779-0.27 2.004-0.777c0-0.472 0-0.949 0.056-1.428 0.361-4.057 2.468-7.818 5.857-10.454z"></path>
<path d="M33.153 24.817c0.092-1.025 0.296-2.039 0.611-3.026-2.111 2.276-3.389 5.102-3.654 8.077-0.026 0.281-0.040 0.561-0.047 0.852 1.458-0.638 2.561-1.18 3.642-1.76l-0.282 0.138c-0.31-1.408-0.401-2.849-0.272-4.28zM33.848 24.87c-0.034 0.36-0.054 0.777-0.054 1.2 0 0.947 0.098 1.872 0.285 2.763l-0.015-0.087c4.774-2.616 10.14-6.658 9.932-11.542v-0.426c-3.411 0.35-6.603 1.715-9.084 3.886-0.547 1.23-0.926 2.657-1.060 4.154l-0.004 0.052z"></path>
</symbol>
<symbol id="client-6" viewBox="0 0 64 32">
<path d="M32.108 15.098c-0.26-0.335-0.417-0.762-0.417-1.226 0-0.046 0.002-0.092 0.005-0.137l-0 0.006v-1.968c0-0.603 0.137-1.061 0.411-1.375 0.273-0.314 0.743-0.469 1.409-0.468 0.626 0 1.071 0.134 1.332 0.401 0.287 0.341 0.427 0.757 0.394 1.177v0.463h-1.119v-0.469c0.004-0.153-0.007-0.306-0.033-0.458-0.019-0.111-0.078-0.206-0.159-0.272l-0.001-0.001c-0.1-0.067-0.224-0.108-0.358-0.108-0.017 0-0.034 0.001-0.050 0.002l0.002-0c-0.014-0.001-0.032-0.002-0.049-0.002-0.141 0-0.272 0.042-0.38 0.115l0.003-0.002c-0.093 0.074-0.159 0.178-0.185 0.297l-0.001 0.004c-0.028 0.135-0.045 0.29-0.045 0.448 0 0.013 0 0.027 0 0.040v-0.002 2.387c-0.018 0.23 0.032 0.461 0.143 0.67 0.058 0.072 0.134 0.128 0.22 0.161l0.004 0.001c0.066 0.026 0.142 0.041 0.221 0.041 0.024 0 0.048-0.001 0.071-0.004l-0.003 0c0.014 0.001 0.031 0.002 0.047 0.002 0.13 0 0.252-0.041 0.351-0.111l-0.002 0.001c0.086-0.072 0.147-0.172 0.167-0.287l0-0.003c0.026-0.158 0.038-0.319 0.035-0.478v-0.484h1.12v0.442c0.003 0.035 0.004 0.076 0.004 0.117 0 0.425-0.147 0.816-0.393 1.124l0.003-0.004c-0.257 0.292-0.696 0.438-1.34 0.438s-1.131-0.156-1.407-0.48zM36.77 15.119c-0.283-0.307-0.424-0.753-0.424-1.343v-2.070c0-0.585 0.141-1.027 0.424-1.327s0.755-0.45 1.419-0.448c0.658 0 1.128 0.15 1.412 0.448 0.283 0.3 0.427 0.742 0.427 1.327v2.069c0 0.585-0.143 1.033-0.431 1.342s-0.755 0.462-1.407 0.462-1.133-0.156-1.419-0.46zM38.71 14.622c0.102-0.191 0.147-0.402 0.135-0.612v-2.534c0.001-0.021 0.002-0.044 0.002-0.068 0-0.195-0.050-0.378-0.137-0.538l0.003 0.006c-0.059-0.073-0.137-0.13-0.225-0.163l-0.004-0.001c-0.065-0.025-0.14-0.040-0.219-0.040-0.027 0-0.053 0.002-0.079 0.005l0.003-0c-0.023-0.003-0.049-0.005-0.076-0.005-0.079 0-0.155 0.015-0.225 0.041l0.004-0.002c-0.093 0.035-0.17 0.092-0.229 0.164l-0.001 0.001c-0.102 0.187-0.148 0.393-0.135 0.6v2.545c-0.014 0.211 0.032 0.421 0.135 0.613 0.065 0.064 0.146 0.116 0.236 0.152 0.085 0.034 0.184 0.054 0.288 0.054s0.202-0.020 0.293-0.056l-0.005 0.002c0.091-0.036 0.17-0.087 0.236-0.152v-0.012zM41.374 9.992h1.205l0.906 3.818 0.928-3.818h1.172l0.119 5.511h-0.867l-0.093-3.83-0.895 3.83h-0.696l-0.927-3.844-0.086 3.844h-0.876l0.109-5.511zM47.055 9.992h1.878c1.081 0 1.623 0.521 1.623 1.565 0 0.999-0.57 1.498-1.709 1.497h-0.639v2.449h-1.159l0.007-5.511zM48.659 12.347c0.114 0.013 0.231 0.004 0.341-0.026 0.109-0.030 0.212-0.080 0.296-0.147 0.133-0.186 0.192-0.405 0.167-0.622 0.001-0.018 0.001-0.039 0.001-0.061 0-0.156-0.021-0.308-0.060-0.451l0.003 0.012c-0.018-0.059-0.048-0.109-0.085-0.152l0 0c-0.040-0.045-0.089-0.082-0.143-0.109l-0.003-0.001c-0.135-0.057-0.292-0.090-0.457-0.090-0.021 0-0.042 0.001-0.064 0.002l0.003-0h-0.45v1.647h0.45zM52.227 9.992h1.244l1.277 5.511h-1.081l-0.253-1.271h-1.11l-0.259 1.271h-1.096l1.277-5.511zM53.291 13.594l-0.434-2.313-0.433 2.313h0.867zM55.78 9.992h0.812l1.552 3.144v-3.144h0.962v5.511h-0.772l-1.563-3.282v3.282h-0.994l0.002-5.511zM61.36 13.401l-1.291-3.401h1.088l0.788 2.185 0.739-2.185h1.064l-1.275 3.402v2.101h-1.112v-2.102zM33.898 17.913v0.288h-0.946v2.239h-0.396v-2.239h-0.95v-0.288h2.293zM36.863 20.44h-0.306c-0.003 0-0.006 0-0.008 0-0.029 0-0.056-0.009-0.078-0.024l0 0c-0.022-0.014-0.039-0.034-0.050-0.057l-0-0.001-0.273-0.6h-1.312l-0.273 0.6c-0.009 0.027-0.023 0.050-0.042 0.068l-0 0c-0.022 0.015-0.050 0.024-0.079 0.024-0.003 0-0.005-0-0.007-0h-0.305l1.159-2.528h0.403l1.174 2.518zM34.943 19.502h1.094l-0.464-1.029c-0.029-0.065-0.058-0.144-0.082-0.225l-0.003-0.013c-0.016 0.048-0.030 0.094-0.044 0.135l-0.042 0.106-0.459 1.027zM38.861 20.192c0.073 0.004 0.145 0.004 0.218 0 0.062-0.006 0.124-0.016 0.185-0.030 0.056-0.011 0.112-0.027 0.167-0.046 0.051-0.018 0.102-0.040 0.155-0.062v-0.568h-0.463c-0.001 0-0.003 0-0.004 0-0.022 0-0.043-0.008-0.059-0.021l0 0c-0.007-0.005-0.013-0.012-0.018-0.020l-0-0c-0.004-0.007-0.006-0.015-0.006-0.023 0-0.001 0-0.002 0-0.003v0-0.194h0.9v0.969c-0.141 0.087-0.303 0.158-0.476 0.203l-0.012 0.003c-0.096 0.024-0.192 0.042-0.29 0.052-0.112 0.010-0.225 0.016-0.338 0.016-0.005 0-0.009 0-0.015 0-0.204 0-0.4-0.035-0.582-0.098l0.012 0.004c-0.179-0.062-0.333-0.152-0.466-0.266l0.002 0.002c-0.124-0.11-0.225-0.243-0.296-0.392l-0.003-0.007c-0.067-0.15-0.107-0.324-0.107-0.508 0-0.006 0-0.012 0-0.018v0.001c-0-0.005-0-0.010-0-0.015 0-0.185 0.038-0.361 0.108-0.521l-0.003 0.008c0.066-0.15 0.169-0.287 0.299-0.401 0.132-0.114 0.29-0.202 0.464-0.262 0.198-0.065 0.409-0.097 0.621-0.094 0.108 0 0.215 0.007 0.322 0.022 0.094 0.014 0.187 0.035 0.276 0.064 0.082 0.026 0.159 0.060 0.232 0.1 0.071 0.039 0.139 0.083 0.202 0.132l-0.111 0.156c-0.009 0.014-0.022 0.026-0.037 0.034l-0.001 0c-0.015 0.008-0.034 0.013-0.053 0.014h-0c-0.026-0.001-0.051-0.008-0.072-0.020l0.001 0c-0.047-0.022-0.084-0.042-0.121-0.064l0.007 0.004c-0.043-0.024-0.095-0.047-0.148-0.066l-0.007-0.002c-0.059-0.021-0.131-0.041-0.205-0.054l-0.009-0.001c-0.084-0.014-0.18-0.022-0.279-0.022-0.005 0-0.011 0-0.016 0h0.001c-0.004-0-0.009-0-0.014-0-0.155 0-0.304 0.026-0.443 0.073l0.010-0.003c-0.129 0.044-0.245 0.112-0.341 0.2-0.092 0.086-0.165 0.191-0.213 0.308l-0.002 0.006c-0.049 0.125-0.078 0.27-0.078 0.421s0.028 0.296 0.080 0.43l-0.003-0.008c0.051 0.119 0.129 0.227 0.232 0.319 0.095 0.087 0.21 0.155 0.338 0.2 0.147 0.044 0.304 0.061 0.459 0.050zM42.556 20.152h1.266v0.288h-1.652v-2.528h0.396l-0.009 2.239zM45.138 20.44h-0.396v-2.528h0.396v2.528zM46.612 17.925c0.024 0.011 0.044 0.027 0.061 0.046l0 0 1.694 1.905c-0.001-0.013-0.002-0.029-0.002-0.045s0.001-0.032 0.002-0.047l-0 0.002v-1.883h0.345v2.538h-0.199c-0.004 0-0.008 0-0.013 0-0.026 0-0.051-0.006-0.074-0.015l0.001 0c-0.024-0.013-0.045-0.029-0.062-0.048l-0-0-1.692-1.904v1.965h-0.332v-2.528h0.206c0.023 0 0.045 0.004 0.065 0.011zM51.631 17.913v0.278h-1.404v0.834h1.138v0.268h-1.138v0.863h1.404v0.278h-1.812v-2.521h1.812zM10.094 2.303l17.601 4.314v15.119l-17.601-4.312v-15.122zM8.965 1.014v17.145l19.856 4.869v-17.143l-19.855-4.87z"></path>
<path d="M19.607 30.986l-19.859-4.873v-17.142l19.859 4.871v17.144z"></path>
<path d="M9.294 2.109l17.371 4.261-7.387 6.38-17.375-4.263 7.391-6.379zM8.965 1.014l-9.216 7.956 19.859 4.872 9.214-7.958-19.856-4.87zM20.724 30.022l8.097-6.993-8.098-1.986v8.98z"></path>
</symbol>
<symbol id="contact-mail" viewBox="0 0 32 32">
<path d="M29 4h-26c-1.654 0-3 1.346-3 3v18c0 1.654 1.346 3 3 3h26c1.654 0 3-1.346 3-3v-18c0-1.654-1.346-3-3-3zM29 6c0.136 0 0.266 0.028 0.384 0.078l-13.384 11.6-13.384-11.6c0.113-0.049 0.245-0.078 0.384-0.078h26zM29 26h-26c-0.552 0-1-0.448-1-1v0-16.81l13.344 11.566c0.175 0.152 0.404 0.245 0.656 0.245s0.481-0.093 0.657-0.246l-0.001 0.001 13.344-11.566v16.81c0 0.552-0.448 1-1 1v0z"></path>
</symbol>
<symbol id="contact-phone" viewBox="0 0 20 32">
<path d="M17 0h-14c-1.654 0-3 1.346-3 3v26c0 1.654 1.346 3 3 3h14c1.654 0 3-1.346 3-3v-26c0-1.654-1.346-3-3-3zM3 2h14c0.552 0 1 0.448 1 1v0 21h-16v-21c0-0.552 0.448-1 1-1v0zM17 30h-14c-0.552 0-1-0.448-1-1v0-3h16v3c0 0.552-0.448 1-1 1v0z"></path>
<path d="M4.708 27.478c0.18 0.163 0.293 0.399 0.293 0.66s-0.113 0.497-0.292 0.659l-0.001 0.001c-0.186 0.17-0.435 0.275-0.708 0.275s-0.522-0.104-0.709-0.275l0.001 0.001c-0.18-0.163-0.293-0.399-0.293-0.66s0.113-0.497 0.292-0.659l0.001-0.001c0.186-0.17 0.435-0.275 0.708-0.275s0.522 0.104 0.709 0.275l-0.001-0.001z"></path>
</symbol>
<symbol id="feature-antenna" viewBox="0 0 32 32">
<path fill="#212121" style="fill: var(--color1, #212121)" d="M30.773 22.098l-8.443-8.505 0.937-4.616c0.225 0.090 0.485 0.144 0.758 0.146h0.007c0.008 0 0.017 0 0.026 0 1.192 0 2.159-0.967 2.159-2.159s-0.967-2.159-2.159-2.159c-1.192 0-2.159 0.967-2.159 2.159 0 0.259 0.046 0.508 0.13 0.739l-0.005-0.015-4.96 0.606-8.091-8.133c-0.096-0.098-0.229-0.159-0.376-0.16h-0c-0.14 0.001-0.274 0.057-0.373 0.155l-1.512 1.504c-0.096 0.097-0.156 0.23-0.156 0.377s0.060 0.281 0.156 0.377v0l0.814 0.825c-1.143 2.062-1.816 4.522-1.816 7.139 0 4.106 1.656 7.824 4.336 10.525l-0.001-0.001c0.043 0.041 0.092 0.074 0.146 0.097-0.032 0.164-0.051 0.353-0.052 0.546v6.188h-6.4c-1.472 0.001-2.666 1.194-2.667 2.666v1.067c0 0.295 0.239 0.534 0.534 0.534h24.534c0.294 0 0.533-0.239 0.533-0.534v-1.067c-0.002-1.472-1.195-2.665-2.666-2.666h-6.4v-2.742c1.003 0.21 2.024 0.317 3.049 0.32 2.58-0.003 5.005-0.663 7.117-1.822l-0.077 0.039 0.818 0.823c0.099 0.101 0.235 0.159 0.376 0.16 0.14-0.001 0.274-0.057 0.373-0.155l1.512-1.504c0.096-0.097 0.156-0.23 0.156-0.377s-0.060-0.281-0.156-0.377v0zM23.28 6.233c0.193-0.192 0.459-0.31 0.752-0.31 0.589 0 1.067 0.478 1.067 1.066s-0.477 1.066-1.067 1.066c-0 0-0 0-0 0h-0.004c-0.587-0.003-1.061-0.479-1.061-1.066 0-0.295 0.12-0.563 0.314-0.756l0-0h-0.002zM22.024 9.737l-0.598 2.946-1.175-1.183 1.774-1.763zM21.419 8.835l-1.92 1.909-1.486-1.493 3.406-0.416zM24.004 28.8c0.884 0 1.6 0.716 1.6 1.6v0 0.534h-23.466v-0.534c0-0.884 0.716-1.6 1.6-1.6v0h20.267zM16.538 26.666v1.067h-5.334v-1.067h5.334zM11.204 25.6v-4.053c0-1.294 1.196-2.346 2.667-2.346s2.667 1.053 2.667 2.346v4.053h-5.334zM17.604 23.904v-2.357c0-1.882-1.675-3.413-3.733-3.413-0.017-0-0.038-0-0.058-0-1.353 0-2.54 0.707-3.213 1.771l-0.009 0.016c-2.36-2.482-3.812-5.846-3.812-9.55 0-2.314 0.567-4.496 1.569-6.414l-0.036 0.077 18.602 18.709c-1.823 0.947-3.979 1.502-6.266 1.502-1.079 0-2.128-0.124-3.136-0.357l0.093 0.018zM28.893 23.22l-21.057-21.181 0.754-0.752 7.935 7.98c0.004 0 0.006 0.007 0.010 0.010l13.114 13.191-0.757 0.752z"></path>
<path fill="#2196f3" style="fill: var(--color2, #2196f3)" d="M13.876 20.267h-0.005c-0.001 0-0.002 0-0.002 0-0.884 0-1.6 0.716-1.6 1.6s0.715 1.599 1.597 1.6h0.005c0.001 0 0.001 0 0.002 0 0.884 0 1.6-0.716 1.6-1.6s-0.715-1.599-1.598-1.6h-0zM14.249 22.245c-0.096 0.096-0.229 0.155-0.376 0.155-0.295 0-0.534-0.239-0.534-0.534s0.238-0.533 0.532-0.533h0c0.293 0.001 0.531 0.239 0.531 0.533 0 0.148-0.060 0.282-0.157 0.378l-0 0h0.005z"></path>
</symbol>
<symbol id="feature-astronaut" viewBox="0 0 38 32">
<path fill="#2196f3" style="fill: var(--color2, #2196f3)" d="M37.104 2.994c-0.072-0.216-0.258-0.376-0.484-0.41l-0.003-0-2.166-0.315-0.969-1.962c-0.203-0.413-0.881-0.413-1.083 0l-0.969 1.962-2.166 0.315c-0.295 0.044-0.518 0.295-0.518 0.598 0 0.17 0.070 0.323 0.182 0.433l1.568 1.528-0.37 2.156c-0.039 0.227 0.054 0.456 0.24 0.592 0.188 0.136 0.434 0.153 0.637 0.046l1.937-1.019 1.937 1.019c0.081 0.043 0.178 0.069 0.281 0.069 0.334 0 0.605-0.271 0.605-0.605 0-0.036-0.003-0.071-0.009-0.105l0.001 0.004-0.37-2.156 1.567-1.528c0.112-0.11 0.182-0.264 0.182-0.433 0-0.067-0.011-0.131-0.031-0.191l0.001 0.004zM34.313 4.498c-0.142 0.138-0.207 0.339-0.174 0.535l0.216 1.263-1.134-0.596c-0.082-0.044-0.179-0.070-0.282-0.070s-0.2 0.026-0.285 0.071l0.003-0.002-1.134 0.596 0.216-1.263c0.006-0.031 0.009-0.066 0.009-0.103 0-0.169-0.070-0.322-0.182-0.432l-0-0-0.919-0.895 1.268-0.184c0.197-0.029 0.367-0.152 0.455-0.331l0.567-1.148 0.567 1.148c0.088 0.179 0.258 0.303 0.455 0.331l1.268 0.184-0.917 0.895zM30.485 21.125h-1.209v1.209h1.209v-1.209zM30.485 23.544h-1.209v1.208h1.209v-1.208zM31.694 22.335h-1.209v1.209h1.209v-1.209zM29.276 22.335h-1.209v1.209h1.209v-1.209zM26.254 27.775h-1.209v1.209h1.209v-1.209zM26.254 30.193h-1.209v1.209h1.209v-1.209zM27.463 28.984h-1.209v1.209h1.209v-1.209zM25.045 28.984h-1.209v1.209h1.209v-1.209zM19 25.357h-1.209v1.209h1.209v-1.209zM19 27.775h-1.209v1.209h1.209v-1.209zM20.209 26.565h-1.209v1.209h1.209v-1.209zM17.791 26.565h-1.209v1.209h1.209v-1.209zM7.515 4.805h-1.209v1.209h1.209v-1.209zM7.515 7.223h-1.209v1.209h1.209v-1.208zM8.724 6.014h-1.209v1.209h1.209v-1.209zM6.306 6.014h-1.209v1.209h1.209v-1.209z"></path>
<path fill="#212121" style="fill: var(--color1, #212121)" d="M28.877 13.914c-0.317-0.427-0.792-0.721-1.337-0.797l-0.011-0.001c-0.087-0.013-0.186-0.021-0.288-0.021-0.465 0-0.894 0.158-1.235 0.423l0.005-0.003-1.42 1.088-2.151 1.606-1.539-0.613c2.744-1.231 4.662-3.976 4.662-7.163 0-4.333-3.539-7.858-7.889-7.858s-7.89 3.525-7.89 7.858c0 1.57 0.47 3.031 1.269 4.26l-3.138-0.027c-0.010 0-0.018 0.005-0.026 0.005-0.064 0.003-0.124 0.016-0.18 0.037l0.004-0.001c-0.015 0.005-0.030 0.008-0.044 0.015-0.007 0.003-0.015 0.004-0.022 0.007l-3.664 1.809c-0.001 0-0.002 0-0.002 0.001l-2.146 1.032c-0.028 0.012-0.051 0.026-0.073 0.041l0.002-0.001c-0.546 0.367-0.901 0.982-0.901 1.68 0 0.337 0.082 0.654 0.228 0.933l-0.005-0.011c0.249 0.48 0.671 0.841 1.183 1.003l0.014 0.004c0.182 0.060 0.392 0.094 0.609 0.094 0.349 0 0.678-0.089 0.964-0.245l-0.011 0.005 1.573-0.836 2.566-1.325 1.538-0.009-6.168 6.138c0 0.001-0.001 0.001-0.002 0.002l-1.517 1.511c-0.343 0.339-0.556 0.81-0.556 1.33 0 0.002 0 0.004 0 0.006v-0c0.002 1.042 0.847 1.886 1.89 1.886 0.001 0 0.002 0 0.003 0h-0c0.485 0 0.968-0.184 1.338-0.55l1.49-1.483 1.973-1.473 1.021 1.017-3.515 3.5c-0.343 0.339-0.556 0.81-0.556 1.33 0 0.002 0 0.003 0 0.005v-0c0 0.504 0.197 0.979 0.556 1.336 0.342 0.34 0.813 0.55 1.333 0.55 0.001 0 0.003 0 0.004 0h-0c0.484 0 0.969-0.183 1.338-0.55l5.087-5.069c0.008-0.007 0.018-0.010 0.025-0.018l5.855-6.413 3.934 0.56c0.029 0.004 0.057 0.006 0.085 0.006 0.073 0 0.143-0.018 0.212-0.044 0.020-0.007 0.037-0.017 0.056-0.026 0.022-0.011 0.045-0.017 0.065-0.031l3.642-2.418c0.013-0.009 0.021-0.024 0.033-0.034 0.015-0.011 0.033-0.016 0.046-0.029l1.44-1.35c0.394-0.369 0.639-0.892 0.639-1.473 0-0.453-0.15-0.872-0.402-1.209l0.004 0.005zM3.281 18.006c-0.111 0.061-0.244 0.097-0.385 0.097-0.089 0-0.174-0.014-0.254-0.041l0.006 0.002c-0.333-0.106-0.571-0.412-0.571-0.774 0-0.267 0.129-0.504 0.328-0.651l0.002-0.002 1.489-0.717 0.359 1.048 0.15 0.44-1.124 0.597zM7.244 15.935l-1.755 0.907-0.289-0.846-0.208-0.608 2.297-1.134-0.045 1.682zM24.357 8.432c0 1.041-0.249 2.023-0.679 2.901l-4.739-2.153c-0.049-0.652-0.388-1.215-0.887-1.568l-0.007-0.004 1.66-5.509c2.694 0.857 4.652 3.371 4.652 6.333zM10.996 8.432c0-3.666 2.997-6.649 6.681-6.649 0.287 0 0.567 0.024 0.845 0.060l-1.623 5.387c-0.022 0-0.042-0.007-0.065-0.007-0 0-0.001 0-0.001 0-1.17 0-2.118 0.947-2.121 2.116v0c0.004 1.169 0.952 2.115 2.122 2.115 0 0 0 0 0.001 0h-0c0.788 0 1.467-0.434 1.834-1.070l4.378 1.989c-1.219 1.64-3.168 2.709-5.369 2.709-3.684 0-6.681-2.983-6.681-6.649zM17.747 9.338c0 0.5-0.41 0.907-0.914 0.907-0 0-0.001 0-0.002 0-0.502 0-0.909-0.405-0.911-0.906v-0c0-0.5 0.409-0.907 0.913-0.907s0.913 0.407 0.913 0.907zM3.659 26.366c-0.124 0.123-0.296 0.2-0.485 0.2s-0.36-0.076-0.484-0.199l0 0c-0.123-0.122-0.2-0.291-0.2-0.478s0.076-0.356 0.199-0.478l0-0 1.091-1.086 0.966 0.961-1.086 1.082zM7.302 30.597c-0.124 0.123-0.296 0.2-0.485 0.2s-0.36-0.076-0.484-0.199l0 0c-0.123-0.122-0.2-0.291-0.2-0.478s0.076-0.356 0.2-0.478l0-0 1.091-1.087 0.965 0.961-1.088 1.083zM11.248 26.666l-0.002 0.002-2 1.995-0.966-0.961 2-1.991c0.045-0.046 0.074-0.1 0.102-0.154 0.008-0.016 0.023-0.029 0.030-0.045 0.019-0.047 0.022-0.097 0.029-0.146 0.004-0.028 0.016-0.054 0.016-0.083 0-0.040-0.015-0.079-0.023-0.119-0.007-0.036-0.007-0.073-0.021-0.108-0.028-0.060-0.063-0.111-0.104-0.156l0 0c-0.011-0.013-0.016-0.030-0.028-0.043h-0.001s0-0.002-0.001-0.003l-1.821-1.813c-0.019-0.019-0.044-0.027-0.066-0.044-0.029-0.024-0.061-0.045-0.095-0.064l-0.003-0.002c-0.030-0.014-0.065-0.027-0.102-0.035l-0.004-0.001c-0.034-0.011-0.074-0.019-0.115-0.023l-0.002-0c-0.008-0-0.017-0.001-0.026-0.001-0.029 0-0.058 0.002-0.085 0.006l0.003-0c-0.040 0.005-0.078 0.010-0.118 0.023-0.038 0.012-0.072 0.031-0.107 0.051-0.023 0.012-0.048 0.017-0.069 0.033l-2.010 1.5-1.021-1.017 2.719-2.705 4.942 4.861-1.051 1.041zM18.976 18.714c-0.018-0.003-0.034 0.004-0.052 0.003-0.009-0-0.020-0.001-0.030-0.001-0.035 0-0.070 0.003-0.104 0.009l0.004-0.001c-0.079 0.013-0.149 0.040-0.212 0.079l0.002-0.001c-0.034 0.021-0.064 0.042-0.094 0.069-0.015 0.012-0.032 0.019-0.046 0.033l-5.324 5.832-4.905-4.824 3.211-3.194c0.109-0.109 0.177-0.261 0.177-0.427 0-0.334-0.271-0.605-0.605-0.605-0.001 0-0.001 0-0.002 0h0l-2.515 0.015 0.032-1.822 3.518 0.030c1.432 1.47 3.431 2.381 5.642 2.381 0.001 0 0.003 0 0.004 0h-0c0.496 0 0.979-0.052 1.45-0.139 0.045 0.036 0.090 0.073 0.147 0.096l2.731 1.088 0.173 0.86 0.202 1.004-3.403-0.484zM23.556 18.916l-0.355-1.766 1.639-1.224 1.072 1.424-2.357 1.566zM27.81 15.707l-0.949 0.89-1.055-1.401 0.942-0.722c0.176-0.135 0.398-0.191 0.616-0.162 0.219 0.031 0.412 0.145 0.544 0.322 0.1 0.133 0.16 0.301 0.16 0.482 0 0.233-0.098 0.443-0.256 0.591l-0 0z"></path>
<path fill="#212121" style="fill: var(--color1, #212121)" d="M16.283 18.883l-2.429-2.418c-0.109-0.109-0.26-0.176-0.426-0.176s-0.317 0.067-0.426 0.176l-2.428 2.418c-0.109 0.11-0.177 0.261-0.177 0.428s0.068 0.319 0.177 0.428l-0-0 2.428 2.418c0.109 0.109 0.26 0.176 0.427 0.176s0.317-0.067 0.427-0.176v0l2.429-2.418c0.11-0.11 0.178-0.261 0.178-0.428s-0.068-0.319-0.178-0.428l-0-0zM13.428 20.877l-1.572-1.565 1.571-1.565 1.572 1.565-1.572 1.565zM20.32 3.613l-0.292 1.174c0.081 0.020 1.969 0.512 1.969 2.435h1.209c0-2.286-1.888-3.36-2.886-3.609zM23.206 8.432h-1.209v1.209h1.209v-1.209z"></path>
</symbol>
<symbol id="feature-clock" viewBox="0 0 32 32">
<path fill="#212121" style="fill: var(--color1, #212121)" d="M31.296 15.301c-0.001-8.452-6.855-15.303-15.308-15.301s-15.303 6.855-15.301 15.308c0.002 6.788 4.422 12.543 10.541 14.545l0.108 0.031c0.061 0.019 0.123 0.029 0.187 0.029 0.12 0 0.238-0.032 0.342-0.094 0.135-0.080 0.236-0.207 0.283-0.357l3.865-12.25c1.054-0.004 1.906-0.859 1.906-1.913 0-1.056-0.856-1.913-1.913-1.913-0.303 0-0.59 0.071-0.845 0.196l0.011-0.005-5.106-5.107c-0.114-0.11-0.271-0.179-0.443-0.179-0.352 0-0.638 0.286-0.638 0.638 0 0.172 0.068 0.328 0.179 0.443l-0-0 5.103 5.109c-0.121 0.241-0.191 0.525-0.191 0.826 0 0.602 0.283 1.137 0.723 1.48l0.004 0.003-3.682 11.673c-7.278-2.681-11.004-10.754-8.324-18.032s10.754-11.004 18.032-8.323c7.278 2.681 11.004 10.754 8.323 18.032-1.345 3.581-4.003 6.406-7.374 7.938l-0.088 0.036-0.398-1.874c-0.063-0.291-0.318-0.506-0.624-0.506-0.164 0-0.313 0.062-0.426 0.163l0.001-0.001-3.837 3.426c-0.132 0.117-0.214 0.287-0.214 0.477 0 0.283 0.185 0.524 0.441 0.606l0.005 0.001 4.899 1.563c0.058 0.020 0.126 0.031 0.196 0.031 0.352 0 0.637-0.285 0.637-0.637 0-0.047-0.005-0.093-0.015-0.138l0.001 0.004-0.391-1.839c5.528-2.374 9.329-7.772 9.329-14.057 0-0.011 0-0.023-0-0.034v0.002zM15.992 14.664c0.352 0 0.638 0.286 0.638 0.638s-0.285 0.638-0.638 0.638v0c-0.352 0-0.638-0.286-0.638-0.638s0.286-0.638 0.638-0.638v0zM18.092 29.528l2.184-1.948 0.603 2.84-2.787-0.892z"></path>
<path fill="#2196f3" style="fill: var(--color2, #2196f3)" d="M15.354 3.185v1.275c0 0.352 0.286 0.638 0.638 0.638s0.638-0.285 0.638-0.638v0-1.275c0-0.352-0.285-0.638-0.638-0.638s-0.638 0.285-0.638 0.638v0zM3.876 14.664c-0.352 0-0.638 0.286-0.638 0.638s0.285 0.638 0.638 0.638h1.275c0.352 0 0.638-0.286 0.638-0.638s-0.285-0.638-0.638-0.638h-1.275zM28.108 15.939c0.352 0 0.638-0.286 0.638-0.638s-0.285-0.638-0.638-0.638h-1.275c-0.352 0-0.638 0.286-0.638 0.638s0.285 0.638 0.638 0.638h1.275z"></path>
</symbol>
<symbol id="feature-diagram" viewBox="0 0 42 32">
<path fill="#2196f3" style="fill: var(--color2, #2196f3)" d="M19.599 14.625h1.39v6.256h-1.39v-6.256zM25.159 17.406h1.39v3.475h-1.39v-3.475zM14.039 19.491h1.39v1.39h-1.39v-1.39zM9.868 18.795h1.39v2.085h-1.39v-2.085z"></path>
<path fill="#212121" style="fill: var(--color1, #212121)" d="M2.223 32.001h33.362c0 0 0 0 0.001 0 1.151 0 2.085-0.933 2.085-2.085v0-2.78c0-1.151-0.933-2.085-2.085-2.085v0h-0.695v-17.334l3.948-3.74c0.27 0.136 0.589 0.216 0.927 0.216 1.158 0 2.097-0.939 2.097-2.097s-0.939-2.097-2.097-2.097c-1.158 0-2.097 0.939-2.097 2.097 0 0.322 0.073 0.627 0.202 0.899l-0.005-0.013-2.974 2.819v-1.603c0-1.151-0.933-2.085-2.085-2.085v0h-27.802c-1.151 0-2.085 0.933-2.085 2.085v0 20.852h-0.695c-1.151 0-2.085 0.933-2.085 2.085v0 2.78c0 1.151 0.933 2.085 2.085 2.085v0zM39.755 1.419c0.384 0 0.695 0.311 0.695 0.695s-0.311 0.695-0.695 0.695v0c-0.384 0-0.695-0.311-0.695-0.695s0.311-0.695 0.695-0.695v0zM4.308 4.199c0-0.384 0.311-0.695 0.695-0.695h27.802c0.384 0 0.695 0.311 0.695 0.695v2.919l-1.39 1.321v-2.849c0-0.384-0.312-0.696-0.696-0.696h-25.021c-0.384 0-0.696 0.311-0.696 0.695v17.377c0 0.384 0.312 0.695 0.696 0.695h25.021c0.384 0 0.696-0.311 0.696-0.695v-12.615l1.39-1.317v16.016h-29.192v-20.85zM10.563 13.235c-0.002 0-0.004 0-0.006 0-1.151 0-2.085 0.933-2.085 2.085s0.933 2.085 2.085 2.085c0.564 0 1.075-0.224 1.45-0.587l-0.001 0.001 2.416 1.212c0.281 0.14 0.621 0.075 0.83-0.16l5.136-5.778 5.049 3.783c0.271 0.203 0.649 0.181 0.895-0.051l4.388-4.156v10.602h-23.631v-15.987h23.631v3.469l-4.918 4.657-5.090-3.817c-0.115-0.087-0.26-0.139-0.418-0.139-0.206 0-0.391 0.090-0.519 0.232l-5.207 5.859-1.946-0.973c0.014-0.083 0.023-0.168 0.026-0.252 0-1.151-0.933-2.085-2.085-2.085v0zM11.258 15.32c0 0.384-0.311 0.695-0.695 0.695s-0.695-0.311-0.695-0.695v0c0-0.384 0.311-0.695 0.695-0.695s0.695 0.311 0.695 0.695v0zM15.429 26.441h6.95v0.695c0 0.384-0.311 0.695-0.694 0.695h-5.561c-0.384 0-0.695-0.311-0.695-0.695v0-0.695zM1.528 27.136c0-0.384 0.311-0.695 0.694-0.695h11.816v0.695c0 1.151 0.933 2.085 2.085 2.085v0h5.561c1.151 0 2.085-0.933 2.085-2.085v0-0.695h11.816c0.384 0 0.695 0.311 0.695 0.695v2.78c0 0.384-0.311 0.695-0.695 0.695h-33.362c-0 0-0 0-0.001 0-0.384 0-0.695-0.311-0.695-0.695 0 0 0 0 0 0v0-2.78z"></path>
</symbol>
<symbol id="social-facebook" viewBox="0 0 32 32">
<path d="M21.328 5.312h2.923v-5.088c-1.232-0.143-2.66-0.224-4.107-0.224-0.052 0-0.104 0-0.157 0l0.008-0c-4.213 0-7.099 2.65-7.099 7.52v4.48h-4.646v5.688h4.646v14.312h5.699v-14.31h4.459l0.709-5.688h-5.17v-3.922c0-1.643 0.443-2.768 2.734-2.768z"></path>
</symbol>
<symbol id="social-instagram" viewBox="0 0 32 32">
<path d="M31.968 9.408c-0.074-1.701-0.349-2.869-0.742-3.882-0.424-1.111-1.054-2.059-1.85-2.837l-0.001-0.001c-0.78-0.792-1.724-1.419-2.778-1.827l-0.054-0.018c-1.019-0.394-2.181-0.667-3.882-0.742-1.712-0.082-2.256-0.101-6.602-0.101-4.344 0-4.888 0.019-6.595 0.094-1.699 0.074-2.869 0.349-3.88 0.742-1.112 0.424-2.060 1.054-2.839 1.85l-0.001 0.001c-0.791 0.78-1.418 1.724-1.825 2.778l-0.018 0.054c-0.395 1.019-0.669 2.181-0.744 3.882-0.082 1.712-0.101 2.256-0.101 6.602 0 4.344 0.019 4.888 0.094 6.595 0.075 1.701 0.35 2.869 0.744 3.882 0.426 1.11 1.055 2.057 1.849 2.837l0.001 0.001c0.8 0.813 1.77 1.443 2.832 1.843 1.019 0.395 2.182 0.67 3.882 0.744 1.707 0.075 2.251 0.094 6.595 0.094 4.346 0 4.89-0.019 6.595-0.094 1.701-0.074 2.869-0.349 3.882-0.742 2.157-0.85 3.833-2.526 4.664-4.628l0.019-0.055c0.394-1.019 0.669-2.182 0.744-3.882 0.075-1.707 0.093-2.251 0.093-6.595s-0.006-4.888-0.080-6.595zM29.088 22.474c-0.070 1.563-0.333 2.406-0.55 2.97-0.552 1.399-1.64 2.486-3.004 3.024l-0.036 0.012c-0.56 0.219-1.411 0.482-2.968 0.55-1.688 0.075-2.194 0.094-6.464 0.094-4.269 0-4.782-0.019-6.464-0.094-1.563-0.069-2.406-0.331-2.97-0.55-0.721-0.269-1.334-0.676-1.836-1.192l-0.001-0.001c-0.517-0.503-0.924-1.117-1.184-1.803l-0.011-0.034c-0.218-0.563-0.48-1.413-0.549-2.97-0.075-1.688-0.094-2.195-0.094-6.464 0-4.27 0.019-4.784 0.094-6.464 0.069-1.563 0.331-2.406 0.549-2.97 0.269-0.722 0.678-1.337 1.198-1.837l0.002-0.002c0.504-0.517 1.119-0.923 1.806-1.182l0.034-0.011c0.56-0.219 1.411-0.48 2.968-0.55 1.688-0.074 2.195-0.093 6.464-0.093 4.275 0 4.782 0.019 6.464 0.093 1.563 0.069 2.406 0.331 2.97 0.55 0.693 0.256 1.325 0.662 1.837 1.194 0.531 0.52 0.938 1.144 1.195 1.84 0.218 0.56 0.48 1.411 0.549 2.968 0.075 1.688 0.094 2.194 0.094 6.464 0 4.269-0.019 4.768-0.094 6.458z"></path>
<path d="M16.059 7.782c-4.539 0.002-8.218 3.682-8.219 8.221v0c0.091 4.471 3.737 8.060 8.221 8.060s8.13-3.589 8.221-8.052l0-0.009c-0.001-4.54-3.681-8.22-8.221-8.221h-0zM16.059 21.334c-2.945-0-5.332-2.388-5.332-5.333s2.388-5.333 5.333-5.333c0 0 0.001 0 0.001 0h-0c2.946 0 5.334 2.388 5.334 5.334s-2.388 5.334-5.334 5.334v0zM26.525 7.458c0 1.060-0.86 1.92-1.92 1.92s-1.92-0.86-1.92-1.92v0c0-1.060 0.86-1.92 1.92-1.92s1.92 0.86 1.92 1.92v0z"></path>
</symbol>
<symbol id="social-linkedin" viewBox="0 0 32 32">
<path d="M31.992 32h0.008v-11.738c0-5.741-1.235-10.163-7.947-10.163-3.227 0-5.392 1.77-6.277 3.45h-0.093v-2.914h-6.365v21.363h6.627v-10.578c0-2.786 0.528-5.48 3.978-5.48 3.398 0 3.45 3.179 3.45 5.658v10.402h6.619zM0.528 10.635h6.635v21.365h-6.635v-21.365zM3.843 0c-2.123 0-3.843 1.721-3.843 3.843v0c0 2.12 1.722 3.878 3.843 3.878 2.12 0 3.842-1.757 3.842-3.878s-1.72-3.841-3.841-3.843h-0z"></path>
</symbol>
<symbol id="social-twitter" viewBox="0 0 32 32">
<path d="M32 6.078c-1.1 0.493-2.376 0.857-3.713 1.028l-0.068 0.007c1.36-0.817 2.382-2.078 2.873-3.579l0.013-0.046c-1.197 0.722-2.591 1.273-4.076 1.573l-0.084 0.014c-1.2-1.279-2.9-2.076-4.787-2.076-3.622 0-6.558 2.936-6.558 6.558 0 0.001 0 0.003 0 0.004v-0c0 0.52 0.043 1.021 0.152 1.496-5.454-0.266-10.28-2.88-13.522-6.861-0.564 0.949-0.899 2.092-0.902 3.313v0.001c0 2.272 1.171 4.286 2.914 5.451-1.091-0.030-2.107-0.325-2.994-0.823l0.033 0.017v0.072c0.003 3.165 2.236 5.807 5.213 6.44l0.043 0.008c-0.499 0.136-1.071 0.215-1.662 0.215-0.020 0-0.041-0-0.061-0l0.003 0c-0.419 0-0.843-0.024-1.242-0.112 0.85 2.598 3.261 4.509 6.13 4.57-2.215 1.746-5.045 2.8-8.122 2.8-0.004 0-0.008 0-0.013 0h0.001c-0.018 0-0.040 0-0.062 0-0.531 0-1.055-0.034-1.569-0.099l0.061 0.006c2.826 1.846 6.287 2.944 10.004 2.944 0.021 0 0.042-0 0.063-0h-0.003c12.072 0 18.672-10 18.672-18.669 0-0.288-0.010-0.57-0.024-0.848 1.299-0.936 2.39-2.064 3.258-3.355l0.030-0.047z"></path>
</symbol>
</defs>
</svg>
